<svg class="rich-terminal" viewBox="0 0 1482 782.0" xmlns="http://www.w3.org/2000/svg">
    <!-- Generated with Rich https://www.textualize.io -->
    <style>

    @font-face {
        font-family: "Fira Code";
        src: local("FiraCode-Regular"),
                url("https://cdnjs.cloudflare.com/ajax/libs/firacode/6.2.0/woff2/FiraCode-Regular.woff2") format("woff2"),
                url("https://cdnjs.cloudflare.com/ajax/libs/firacode/6.2.0/woff/FiraCode-Regular.woff") format("woff");
        font-style: normal;
        font-weight: 400;
    }
    @font-face {
        font-family: "Fira Code";
        src: local("FiraCode-Bold"),
                url("https://cdnjs.cloudflare.com/ajax/libs/firacode/6.2.0/woff2/FiraCode-Bold.woff2") format("woff2"),
                url("https://cdnjs.cloudflare.com/ajax/libs/firacode/6.2.0/woff/FiraCode-Bold.woff") format("woff");
        font-style: bold;
        font-weight: 700;
    }

    .terminal-baseline-matrix {
        font-family: Fira Code, monospace;
        font-size: 20px;
        line-height: 24.4px;
        font-variant-east-asian: full-width;
    }

    .terminal-baseline-title {
        font-size: 18px;
        font-weight: bold;
        font-family: arial;
    }

    .terminal-baseline-r1 { fill: #c5c8c6 }
.terminal-baseline-r2 { fill: #86bde8;font-weight: bold }
.terminal-baseline-r3 { fill: #ffd343 }
.terminal-baseline-r4 { fill: #a2aaa9;font-weight: bold }
.terminal-baseline-r5 { fill: #eee9e0;font-weight: bold }
.terminal-baseline-r6 { fill: #ffd343;font-weight: bold }
.terminal-baseline-r7 { fill: #9ba3a5 }
.terminal-baseline-r8 { fill: #ffffff;font-weight: bold }
.terminal-baseline-r9 { fill: #151719 }
.terminal-baseline-r10 { fill: #303639 }
.terminal-baseline-r11 { fill: #dddcd7 }
.terminal-baseline-r12 { fill: #7c7d7c }
.terminal-baseline-r13 { fill: #dddcd7;font-weight: bold }
.terminal-baseline-r14 { fill: #8f999c }
.terminal-baseline-r15 { fill: #8f999c;font-weight: bold }
.terminal-baseline-r16 { fill: #9ba3a5;font-weight: bold }
    </style>

    <defs>
    <clipPath id="terminal-baseline-clip-terminal">
      <rect x="0" y="0" width="1463.0" height="731.0" />
    </clipPath>
    <clipPath id="terminal-baseline-line-0">
    <rect x="0" y="1.5" width="1464" height="24.65"/>
            </clipPath>
<clipPath id="terminal-baseline-line-1">
    <rect x="0" y="25.9" width="1464" height="24.65"/>
            </clipPath>
<clipPath id="terminal-baseline-line-2">
    <rect x="0" y="50.3" width="1464" height="24.65"/>
            </clipPath>
<clipPath id="terminal-baseline-line-3">
    <rect x="0" y="74.7" width="1464" height="24.65"/>
            </clipPath>
<clipPath id="terminal-baseline-line-4">
    <rect x="0" y="99.1" width="1464" height="24.65"/>
            </clipPath>
<clipPath id="terminal-baseline-line-5">
    <rect x="0" y="123.5" width="1464" height="24.65"/>
            </clipPath>
<clipPath id="terminal-baseline-line-6">
    <rect x="0" y="147.9" width="1464" height="24.65"/>
            </clipPath>
<clipPath id="terminal-baseline-line-7">
    <rect x="0" y="172.3" width="1464" height="24.65"/>
            </clipPath>
<clipPath id="terminal-baseline-line-8">
    <rect x="0" y="196.7" width="1464" height="24.65"/>
            </clipPath>
<clipPath id="terminal-baseline-line-9">
    <rect x="0" y="221.1" width="1464" height="24.65"/>
            </clipPath>
<clipPath id="terminal-baseline-line-10">
    <rect x="0" y="245.5" width="1464" height="24.65"/>
            </clipPath>
<clipPath id="terminal-baseline-line-11">
    <rect x="0" y="269.9" width="1464" height="24.65"/>
            </clipPath>
<clipPath id="terminal-baseline-line-12">
    <rect x="0" y="294.3" width="1464" height="24.65"/>
            </clipPath>
<clipPath id="terminal-baseline-line-13">
    <rect x="0" y="318.7" width="1464" height="24.65"/>
            </clipPath>
<clipPath id="terminal-baseline-line-14">
    <rect x="0" y="343.1" width="1464" height="24.65"/>
            </clipPath>
<clipPath id="terminal-baseline-line-15">
    <rect x="0" y="367.5" width="1464" height="24.65"/>
            </clipPath>
<clipPath id="terminal-baseline-line-16">
    <rect x="0" y="391.9" width="1464" height="24.65"/>
            </clipPath>
<clipPath id="terminal-baseline-line-17">
    <rect x="0" y="416.3" width="1464" height="24.65"/>
            </clipPath>
<clipPath id="terminal-baseline-line-18">
    <rect x="0" y="440.7" width="1464" height="24.65"/>
            </clipPath>
<clipPath id="terminal-baseline-line-19">
    <rect x="0" y="465.1" width="1464" height="24.65"/>
            </clipPath>
<clipPath id="terminal-baseline-line-20">
    <rect x="0" y="489.5" width="1464" height="24.65"/>
            </clipPath>
<clipPath id="terminal-baseline-line-21">
    <rect x="0" y="513.9" width="1464" height="24.65"/>
            </clipPath>
<clipPath id="terminal-baseline-line-22">
    <rect x="0" y="538.3" width="1464" height="24.65"/>
            </clipPath>
<clipPath id="terminal-baseline-line-23">
    <rect x="0" y="562.7" width="1464" height="24.65"/>
            </clipPath>
<clipPath id="terminal-baseline-line-24">
    <rect x="0" y="587.1" width="1464" height="24.65"/>
            </clipPath>
<clipPath id="terminal-baseline-line-25">
    <rect x="0" y="611.5" width="1464" height="24.65"/>
            </clipPath>
<clipPath id="terminal-baseline-line-26">
    <rect x="0" y="635.9" width="1464" height="24.65"/>
            </clipPath>
<clipPath id="terminal-baseline-line-27">
    <rect x="0" y="660.3" width="1464" height="24.65"/>
            </clipPath>
<clipPath id="terminal-baseline-line-28">
    <rect x="0" y="684.7" width="1464" height="24.65"/>
            </clipPath>
    </defs>

    <rect fill="#292929" stroke="rgba(255,255,255,0.35)" stroke-width="1" x="1" y="1" width="1480" height="780" rx="8"/><text class="terminal-baseline-title" fill="#c5c8c6" text-anchor="middle" x="740" y="27">Pytuitor</text>
            <g transform="translate(26,22)">
            <circle cx="0" cy="0" r="7" fill="#ff5f57"/>
            <circle cx="22" cy="0" r="7" fill="#febc2e"/>
            <circle cx="44" cy="0" r="7" fill="#28c840"/>
            </g>

    <g transform="translate(9, 41)" clip-path="url(#terminal-baseline-clip-terminal)">
    <rect fill="#151719" x="0" y="1.5" width="1464" height="24.65" shape-rendering="crispEdges"/><rect fill="#151719" x="0" y="25.9" width="36.6" height="24.65" shape-rendering="crispEdges"/><rect fill="#151719" x="36.6" y="25.9" width="24.4" height="24.65" shape-rendering="crispEdges"/><rect fill="#151719" x="61" y="25.9" width="73.2" height="24.65" shape-rendering="crispEdges"/><rect fill="#151719" x="134.2" y="25.9" width="109.8" height="24.65" shape-rendering="crispEdges"/><rect fill="#151719" x="244" y="25.9" width="1085.8" height="24.65" shape-rendering="crispEdges"/><rect fill="#151719" x="1329.8" y="25.9" width="97.6" height="24.65" shape-rendering="crispEdges"/><rect fill="#151719" x="1427.4" y="25.9" width="36.6" height="24.65" shape-rendering="crispEdges"/><rect fill="#151719" x="0" y="50.3" width="24.4" height="24.65" shape-rendering="crispEdges"/><rect fill="#151719" x="24.4" y="50.3" width="36.6" height="24.65" shape-rendering="crispEdges"/><rect fill="#151719" x="61" y="50.3" width="97.6" height="24.65" shape-rendering="crispEdges"/><rect fill="#151719" x="158.6" y="50.3" width="719.8" height="24.65" shape-rendering="crispEdges"/><rect fill="#151719" x="878.4" y="50.3" width="12.2" height="24.65" shape-rendering="crispEdges"/><rect fill="#151719" x="890.6" y="50.3" width="134.2" height="24.65" shape-rendering="crispEdges"/><rect fill="#151719" x="1024.8" y="50.3" width="12.2" height="24.65" shape-rendering="crispEdges"/><rect fill="#151719" x="1037" y="50.3" width="12.2" height="24.65" shape-rendering="crispEdges"/><rect fill="#151719" x="1049.2" y="50.3" width="12.2" height="24.65" shape-rendering="crispEdges"/><rect fill="#151719" x="1061.4" y="50.3" width="122" height="24.65" shape-rendering="crispEdges"/><rect fill="#151719" x="1183.4" y="50.3" width="12.2" height="24.65" shape-rendering="crispEdges"/><rect fill="#151719" x="1195.6" y="50.3" width="12.2" height="24.65" shape-rendering="crispEdges"/><rect fill="#151719" x="1207.8" y="50.3" width="12.2" height="24.65" shape-rendering="crispEdges"/><rect fill="#151719" x="1220" y="50.3" width="170.8" height="24.65" shape-rendering="crispEdges"/><rect fill="#151719" x="1390.8" y="50.3" width="12.2" height="24.65" shape-rendering="crispEdges"/><rect fill="#151719" x="1403" y="50.3" width="36.6" height="24.65" shape-rendering="crispEdges"/><rect fill="#151719" x="1439.6" y="50.3" width="24.4" height="24.65" shape-rendering="crispEdges"/><rect fill="#151719" x="0" y="74.7" width="24.4" height="24.65" shape-rendering="crispEdges"/><rect fill="#151719" x="24.4" y="74.7" width="36.6" height="24.65" shape-rendering="crispEdges"/><rect fill="#151719" x="61" y="74.7" width="1342" height="24.65" shape-rendering="crispEdges"/><rect fill="#151719" x="1403" y="74.7" width="36.6" height="24.65" shape-rendering="crispEdges"/><rect fill="#151719" x="1439.6" y="74.7" width="24.4" height="24.65" shape-rendering="crispEdges"/><rect fill="#151719" x="0" y="99.1" width="24.4" height="24.65" shape-rendering="crispEdges"/><rect fill="#151719" x="24.4" y="99.1" width="36.6" height="24.65" shape-rendering="crispEdges"/><rect fill="#151719" x="61" y="99.1" width="427" height="24.65" shape-rendering="crispEdges"/><rect fill="#151719" x="488" y="99.1" width="915" height="24.65" shape-rendering="crispEdges"/><rect fill="#151719" x="1403" y="99.1" width="36.6" height="24.65" shape-rendering="crispEdges"/><rect fill="#151719" x="1439.6" y="99.1" width="24.4" height="24.65" shape-rendering="crispEdges"/><rect fill="#151719" x="0" y="123.5" width="24.4" height="24.65" shape-rendering="crispEdges"/><rect fill="#151719" x="24.4" y="123.5" width="36.6" height="24.65" shape-rendering="crispEdges"/><rect fill="#151719" x="61" y="123.5" width="1342" height="24.65" shape-rendering="crispEdges"/><rect fill="#151719" x="1403" y="123.5" width="36.6" height="24.65" shape-rendering="crispEdges"/><rect fill="#151719" x="1439.6" y="123.5" width="24.4" height="24.65" shape-rendering="crispEdges"/><rect fill="#151719" x="0" y="147.9" width="24.4" height="24.65" shape-rendering="crispEdges"/><rect fill="#151719" x="24.4" y="147.9" width="36.6" height="24.65" shape-rendering="crispEdges"/><rect fill="#222629" x="61" y="147.9" width="12.2" height="24.65" shape-rendering="crispEdges"/><rect fill="#222629" x="73.2" y="147.9" width="12.2" height="24.65" shape-rendering="crispEdges"/><rect fill="#222629" x="85.4" y="147.9" width="195.2" height="24.65" shape-rendering="crispEdges"/><rect fill="#222629" x="280.6" y="147.9" width="890.6" height="24.65" shape-rendering="crispEdges"/><rect fill="#222629" x="1171.2" y="147.9" width="12.2" height="24.65" shape-rendering="crispEdges"/><rect fill="#222629" x="1183.4" y="147.9" width="12.2" height="24.65" shape-rendering="crispEdges"/><rect fill="#3776ab" x="1195.6" y="147.9" width="24.4" height="24.65" shape-rendering="crispEdges"/><rect fill="#3776ab" x="1220" y="147.9" width="146.4" height="24.65" shape-rendering="crispEdges"/><rect fill="#3776ab" x="1366.4" y="147.9" width="24.4" height="24.65" shape-rendering="crispEdges"/><rect fill="#222629" x="1390.8" y="147.9" width="12.2" height="24.65" shape-rendering="crispEdges"/><rect fill="#151719" x="1403" y="147.9" width="36.6" height="24.65" shape-rendering="crispEdges"/><rect fill="#151719" x="1439.6" y="147.9" width="24.4" height="24.65" shape-rendering="crispEdges"/><rect fill="#151719" x="0" y="172.3" width="24.4" height="24.65" shape-rendering="crispEdges"/><rect fill="#151719" x="24.4" y="172.3" width="36.6" height="24.65" shape-rendering="crispEdges"/><rect fill="#222629" x="61" y="172.3" width="12.2" height="24.65" shape-rendering="crispEdges"/><rect fill="#222629" x="73.2" y="172.3" width="12.2" height="24.65" shape-rendering="crispEdges"/><rect fill="#222629" x="85.4" y="172.3" width="244" height="24.65" shape-rendering="crispEdges"/><rect fill="#222629" x="329.4" y="172.3" width="841.8" height="24.65" shape-rendering="crispEdges"/><rect fill="#222629" x="1171.2" y="172.3" width="12.2" height="24.65" shape-rendering="crispEdges"/><rect fill="#222629" x="1183.4" y="172.3" width="12.2" height="24.65" shape-rendering="crispEdges"/><rect fill="#3776ab" x="1195.6" y="172.3" width="24.4" height="24.65" shape-rendering="crispEdges"/><rect fill="#3776ab" x="1220" y="172.3" width="146.4" height="24.65" shape-rendering="crispEdges"/><rect fill="#3776ab" x="1366.4" y="172.3" width="24.4" height="24.65" shape-rendering="crispEdges"/><rect fill="#222629" x="1390.8" y="172.3" width="12.2" height="24.65" shape-rendering="crispEdges"/><rect fill="#151719" x="1403" y="172.3" width="36.6" height="24.65" shape-rendering="crispEdges"/><rect fill="#151719" x="1439.6" y="172.3" width="24.4" height="24.65" shape-rendering="crispEdges"/><rect fill="#151719" x="0" y="196.7" width="24.4" height="24.65" shape-rendering="crispEdges"/><rect fill="#151719" x="24.4" y="196.7" width="36.6" height="24.65" shape-rendering="crispEdges"/><rect fill="#222629" x="61" y="196.7" width="12.2" height="24.65" shape-rendering="crispEdges"/><rect fill="#222629" x="73.2" y="196.7" width="12.2" height="24.65" shape-rendering="crispEdges"/><rect fill="#222629" x="85.4" y="196.7" width="646.6" height="24.65" shape-rendering="crispEdges"/><rect fill="#222629" x="732" y="196.7" width="439.2" height="24.65" shape-rendering="crispEdges"/><rect fill="#222629" x="1171.2" y="196.7" width="12.2" height="24.65" shape-rendering="crispEdges"/><rect fill="#222629" x="1183.4" y="196.7" width="12.2" height="24.65" shape-rendering="crispEdges"/><rect fill="#3776ab" x="1195.6" y="196.7" width="24.4" height="24.65" shape-rendering="crispEdges"/><rect fill="#3776ab" x="1220" y="196.7" width="146.4" height="24.65" shape-rendering="crispEdges"/><rect fill="#3776ab" x="1366.4" y="196.7" width="24.4" height="24.65" shape-rendering="crispEdges"/><rect fill="#222629" x="1390.8" y="196.7" width="12.2" height="24.65" shape-rendering="crispEdges"/><rect fill="#151719" x="1403" y="196.7" width="36.6" height="24.65" shape-rendering="crispEdges"/><rect fill="#151719" x="1439.6" y="196.7" width="24.4" height="24.65" shape-rendering="crispEdges"/><rect fill="#151719" x="0" y="221.1" width="24.4" height="24.65" shape-rendering="crispEdges"/><rect fill="#151719" x="24.4" y="221.1" width="36.6" height="24.65" shape-rendering="crispEdges"/><rect fill="#303639" x="61" y="221.1" width="12.2" height="24.65" shape-rendering="crispEdges"/><rect fill="#1c1f22" x="73.2" y="221.1" width="1317.6" height="24.65" shape-rendering="crispEdges"/><rect fill="#151719" x="1390.8" y="221.1" width="12.2" height="24.65" shape-rendering="crispEdges"/><rect fill="#151719" x="1403" y="221.1" width="36.6" height="24.65" shape-rendering="crispEdges"/><rect fill="#151719" x="1439.6" y="221.1" width="24.4" height="24.65" shape-rendering="crispEdges"/><rect fill="#151719" x="0" y="245.5" width="24.4" height="24.65" shape-rendering="crispEdges"/><rect fill="#151719" x="24.4" y="245.5" width="36.6" height="24.65" shape-rendering="crispEdges"/><rect fill="#303639" x="61" y="245.5" width="12.2" height="24.65" shape-rendering="crispEdges"/><rect fill="#1c1f22" x="73.2" y="245.5" width="24.4" height="24.65" shape-rendering="crispEdges"/><rect fill="#1c1f22" x="97.6" y="245.5" width="622.2" height="24.65" shape-rendering="crispEdges"/><rect fill="#1c1f22" x="719.8" y="245.5" width="622.2" height="24.65" shape-rendering="crispEdges"/><rect fill="#1c1f22" x="1342" y="245.5" width="12.2" height="24.65" shape-rendering="crispEdges"/><rect fill="#1c1f22" x="1354.2" y="245.5" width="12.2" height="24.65" shape-rendering="crispEdges"/><rect fill="#1c1f22" x="1366.4" y="245.5" width="24.4" height="24.65" shape-rendering="crispEdges"/><rect fill="#151719" x="1390.8" y="245.5" width="12.2" height="24.65" shape-rendering="crispEdges"/><rect fill="#151719" x="1403" y="245.5" width="36.6" height="24.65" shape-rendering="crispEdges"/><rect fill="#151719" x="1439.6" y="245.5" width="24.4" height="24.65" shape-rendering="crispEdges"/><rect fill="#151719" x="0" y="269.9" width="24.4" height="24.65" shape-rendering="crispEdges"/><rect fill="#151719" x="24.4" y="269.9" width="36.6" height="24.65" shape-rendering="crispEdges"/><rect fill="#303639" x="61" y="269.9" width="12.2" height="24.65" shape-rendering="crispEdges"/><rect fill="#1c1f22" x="73.2" y="269.9" width="1317.6" height="24.65" shape-rendering="crispEdges"/><rect fill="#151719" x="1390.8" y="269.9" width="12.2" height="24.65" shape-rendering="crispEdges"/><rect fill="#151719" x="1403" y="269.9" width="36.6" height="24.65" shape-rendering="crispEdges"/><rect fill="#151719" x="1439.6" y="269.9" width="24.4" height="24.65" shape-rendering="crispEdges"/><rect fill="#151719" x="0" y="294.3" width="24.4" height="24.65" shape-rendering="crispEdges"/><rect fill="#151719" x="24.4" y="294.3" width="36.6" height="24.65" shape-rendering="crispEdges"/><rect fill="#151719" x="61" y="294.3" width="573.4" height="24.65" shape-rendering="crispEdges"/><rect fill="#151719" x="634.4" y="294.3" width="768.6" height="24.65" shape-rendering="crispEdges"/><rect fill="#151719" x="1403" y="294.3" width="36.6" height="24.65" shape-rendering="crispEdges"/><rect fill="#151719" x="1439.6" y="294.3" width="24.4" height="24.65" shape-rendering="crispEdges"/><rect fill="#151719" x="0" y="318.7" width="24.4" height="24.65" shape-rendering="crispEdges"/><rect fill="#151719" x="24.4" y="318.7" width="36.6" height="24.65" shape-rendering="crispEdges"/><rect fill="#151719" x="61" y="318.7" width="280.6" height="24.65" shape-rendering="crispEdges"/><rect fill="#151719" x="341.6" y="318.7" width="1061.4" height="24.65" shape-rendering="crispEdges"/><rect fill="#151719" x="1403" y="318.7" width="36.6" height="24.65" shape-rendering="crispEdges"/><rect fill="#151719" x="1439.6" y="318.7" width="24.4" height="24.65" shape-rendering="crispEdges"/><rect fill="#151719" x="0" y="343.1" width="24.4" height="24.65" shape-rendering="crispEdges"/><rect fill="#151719" x="24.4" y="343.1" width="36.6" height="24.65" shape-rendering="crispEdges"/><rect fill="#25282b" x="61" y="343.1" width="12.2" height="24.65" shape-rendering="crispEdges"/><rect fill="#25282b" x="73.2" y="343.1" width="305" height="24.65" shape-rendering="crispEdges"/><rect fill="#25282b" x="378.2" y="343.1" width="244" height="24.65" shape-rendering="crispEdges"/><rect fill="#25282b" x="622.2" y="343.1" width="768.6" height="24.65" shape-rendering="crispEdges"/><rect fill="#25282b" x="1390.8" y="343.1" width="12.2" height="24.65" shape-rendering="crispEdges"/><rect fill="#151719" x="1403" y="343.1" width="36.6" height="24.65" shape-rendering="crispEdges"/><rect fill="#151719" x="1439.6" y="343.1" width="24.4" height="24.65" shape-rendering="crispEdges"/><rect fill="#151719" x="0" y="367.5" width="24.4" height="24.65" shape-rendering="crispEdges"/><rect fill="#151719" x="24.4" y="367.5" width="36.6" height="24.65" shape-rendering="crispEdges"/><rect fill="#25282b" x="61" y="367.5" width="12.2" height="24.65" shape-rendering="crispEdges"/><rect fill="#25282b" x="73.2" y="367.5" width="317.2" height="24.65" shape-rendering="crispEdges"/><rect fill="#25282b" x="390.4" y="367.5" width="256.2" height="24.65" shape-rendering="crispEdges"/><rect fill="#25282b" x="646.6" y="367.5" width="744.2" height="24.65" shape-rendering="crispEdges"/><rect fill="#25282b" x="1390.8" y="367.5" width="12.2" height="24.65" shape-rendering="crispEdges"/><rect fill="#151719" x="1403" y="367.5" width="36.6" height="24.65" shape-rendering="crispEdges"/><rect fill="#151719" x="1439.6" y="367.5" width="24.4" height="24.65" shape-rendering="crispEdges"/><rect fill="#151719" x="0" y="391.9" width="24.4" height="24.65" shape-rendering="crispEdges"/><rect fill="#151719" x="24.4" y="391.9" width="36.6" height="24.65" shape-rendering="crispEdges"/><rect fill="#25282b" x="61" y="391.9" width="12.2" height="24.65" shape-rendering="crispEdges"/><rect fill="#25282b" x="73.2" y="391.9" width="305" height="24.65" shape-rendering="crispEdges"/><rect fill="#25282b" x="378.2" y="391.9" width="256.2" height="24.65" shape-rendering="crispEdges"/><rect fill="#25282b" x="634.4" y="391.9" width="756.4" height="24.65" shape-rendering="crispEdges"/><rect fill="#25282b" x="1390.8" y="391.9" width="12.2" height="24.65" shape-rendering="crispEdges"/><rect fill="#151719" x="1403" y="391.9" width="36.6" height="24.65" shape-rendering="crispEdges"/><rect fill="#151719" x="1439.6" y="391.9" width="24.4" height="24.65" shape-rendering="crispEdges"/><rect fill="#151719" x="0" y="416.3" width="24.4" height="24.65" shape-rendering="crispEdges"/><rect fill="#151719" x="24.4" y="416.3" width="36.6" height="24.65" shape-rendering="crispEdges"/><rect fill="#25282b" x="61" y="416.3" width="12.2" height="24.65" shape-rendering="crispEdges"/><rect fill="#353b3e" x="73.2" y="416.3" width="329.4" height="24.65" shape-rendering="crispEdges"/><rect fill="#353b3e" x="402.6" y="416.3" width="183" height="24.65" shape-rendering="crispEdges"/><rect fill="#353b3e" x="585.6" y="416.3" width="805.2" height="24.65" shape-rendering="crispEdges"/><rect fill="#25282b" x="1390.8" y="416.3" width="12.2" height="24.65" shape-rendering="crispEdges"/><rect fill="#151719" x="1403" y="416.3" width="36.6" height="24.65" shape-rendering="crispEdges"/><rect fill="#151719" x="1439.6" y="416.3" width="24.4" height="24.65" shape-rendering="crispEdges"/><rect fill="#151719" x="0" y="440.7" width="24.4" height="24.65" shape-rendering="crispEdges"/><rect fill="#151719" x="24.4" y="440.7" width="36.6" height="24.65" shape-rendering="crispEdges"/><rect fill="#25282b" x="61" y="440.7" width="12.2" height="24.65" shape-rendering="crispEdges"/><rect fill="#25282b" x="73.2" y="440.7" width="280.6" height="24.65" shape-rendering="crispEdges"/><rect fill="#25282b" x="353.8" y="440.7" width="183" height="24.65" shape-rendering="crispEdges"/><rect fill="#25282b" x="536.8" y="440.7" width="854" height="24.65" shape-rendering="crispEdges"/><rect fill="#25282b" x="1390.8" y="440.7" width="12.2" height="24.65" shape-rendering="crispEdges"/><rect fill="#151719" x="1403" y="440.7" width="36.6" height="24.65" shape-rendering="crispEdges"/><rect fill="#151719" x="1439.6" y="440.7" width="24.4" height="24.65" shape-rendering="crispEdges"/><rect fill="#151719" x="0" y="465.1" width="24.4" height="24.65" shape-rendering="crispEdges"/><rect fill="#151719" x="24.4" y="465.1" width="36.6" height="24.65" shape-rendering="crispEdges"/><rect fill="#25282b" x="61" y="465.1" width="12.2" height="24.65" shape-rendering="crispEdges"/><rect fill="#25282b" x="73.2" y="465.1" width="378.2" height="24.65" shape-rendering="crispEdges"/><rect fill="#25282b" x="451.4" y="465.1" width="390.4" height="24.65" shape-rendering="crispEdges"/><rect fill="#25282b" x="841.8" y="465.1" width="549" height="24.65" shape-rendering="crispEdges"/><rect fill="#25282b" x="1390.8" y="465.1" width="12.2" height="24.65" shape-rendering="crispEdges"/><rect fill="#151719" x="1403" y="465.1" width="36.6" height="24.65" shape-rendering="crispEdges"/><rect fill="#151719" x="1439.6" y="465.1" width="24.4" height="24.65" shape-rendering="crispEdges"/><rect fill="#151719" x="0" y="489.5" width="24.4" height="24.65" shape-rendering="crispEdges"/><rect fill="#151719" x="24.4" y="489.5" width="36.6" height="24.65" shape-rendering="crispEdges"/><rect fill="#25282b" x="61" y="489.5" width="12.2" height="24.65" shape-rendering="crispEdges"/><rect fill="#25282b" x="73.2" y="489.5" width="1317.6" height="24.65" shape-rendering="crispEdges"/><rect fill="#25282b" x="1390.8" y="489.5" width="12.2" height="24.65" shape-rendering="crispEdges"/><rect fill="#151719" x="1403" y="489.5" width="36.6" height="24.65" shape-rendering="crispEdges"/><rect fill="#151719" x="1439.6" y="489.5" width="24.4" height="24.65" shape-rendering="crispEdges"/><rect fill="#151719" x="0" y="513.9" width="24.4" height="24.65" shape-rendering="crispEdges"/><rect fill="#151719" x="24.4" y="513.9" width="36.6" height="24.65" shape-rendering="crispEdges"/><rect fill="#25282b" x="61" y="513.9" width="12.2" height="24.65" shape-rendering="crispEdges"/><rect fill="#25282b" x="73.2" y="513.9" width="1317.6" height="24.65" shape-rendering="crispEdges"/><rect fill="#25282b" x="1390.8" y="513.9" width="12.2" height="24.65" shape-rendering="crispEdges"/><rect fill="#151719" x="1403" y="513.9" width="36.6" height="24.65" shape-rendering="crispEdges"/><rect fill="#151719" x="1439.6" y="513.9" width="24.4" height="24.65" shape-rendering="crispEdges"/><rect fill="#151719" x="0" y="538.3" width="24.4" height="24.65" shape-rendering="crispEdges"/><rect fill="#151719" x="24.4" y="538.3" width="36.6" height="24.65" shape-rendering="crispEdges"/><rect fill="#25282b" x="61" y="538.3" width="12.2" height="24.65" shape-rendering="crispEdges"/><rect fill="#25282b" x="73.2" y="538.3" width="1317.6" height="24.65" shape-rendering="crispEdges"/><rect fill="#25282b" x="1390.8" y="538.3" width="12.2" height="24.65" shape-rendering="crispEdges"/><rect fill="#151719" x="1403" y="538.3" width="36.6" height="24.65" shape-rendering="crispEdges"/><rect fill="#151719" x="1439.6" y="538.3" width="24.4" height="24.65" shape-rendering="crispEdges"/><rect fill="#151719" x="0" y="562.7" width="24.4" height="24.65" shape-rendering="crispEdges"/><rect fill="#151719" x="24.4" y="562.7" width="36.6" height="24.65" shape-rendering="crispEdges"/><rect fill="#25282b" x="61" y="562.7" width="12.2" height="24.65" shape-rendering="crispEdges"/><rect fill="#25282b" x="73.2" y="562.7" width="1317.6" height="24.65" shape-rendering="crispEdges"/><rect fill="#25282b" x="1390.8" y="562.7" width="12.2" height="24.65" shape-rendering="crispEdges"/><rect fill="#151719" x="1403" y="562.7" width="36.6" height="24.65" shape-rendering="crispEdges"/><rect fill="#151719" x="1439.6" y="562.7" width="24.4" height="24.65" shape-rendering="crispEdges"/><rect fill="#151719" x="0" y="587.1" width="24.4" height="24.65" shape-rendering="crispEdges"/><rect fill="#151719" x="24.4" y="587.1" width="36.6" height="24.65" shape-rendering="crispEdges"/><rect fill="#25282b" x="61" y="587.1" width="12.2" height="24.65" shape-rendering="crispEdges"/><rect fill="#25282b" x="73.2" y="587.1" width="1317.6" height="24.65" shape-rendering="crispEdges"/><rect fill="#25282b" x="1390.8" y="587.1" width="12.2" height="24.65" shape-rendering="crispEdges"/><rect fill="#151719" x="1403" y="587.1" width="36.6" height="24.65" shape-rendering="crispEdges"/><rect fill="#151719" x="1439.6" y="587.1" width="24.4" height="24.65" shape-rendering="crispEdges"/><rect fill="#151719" x="0" y="611.5" width="24.4" height="24.65" shape-rendering="crispEdges"/><rect fill="#151719" x="24.4" y="611.5" width="36.6" height="24.65" shape-rendering="crispEdges"/><rect fill="#25282b" x="61" y="611.5" width="12.2" height="24.65" shape-rendering="crispEdges"/><rect fill="#25282b" x="73.2" y="611.5" width="1317.6" height="24.65" shape-rendering="crispEdges"/><rect fill="#25282b" x="1390.8" y="611.5" width="12.2" height="24.65" shape-rendering="crispEdges"/><rect fill="#151719" x="1403" y="611.5" width="36.6" height="24.65" shape-rendering="crispEdges"/><rect fill="#151719" x="1439.6" y="611.5" width="24.4" height="24.65" shape-rendering="crispEdges"/><rect fill="#151719" x="0" y="635.9" width="24.4" height="24.65" shape-rendering="crispEdges"/><rect fill="#151719" x="24.4" y="635.9" width="36.6" height="24.65" shape-rendering="crispEdges"/><rect fill="#25282b" x="61" y="635.9" width="12.2" height="24.65" shape-rendering="crispEdges"/><rect fill="#25282b" x="73.2" y="635.9" width="1317.6" height="24.65" shape-rendering="crispEdges"/><rect fill="#25282b" x="1390.8" y="635.9" width="12.2" height="24.65" shape-rendering="crispEdges"/><rect fill="#151719" x="1403" y="635.9" width="36.6" height="24.65" shape-rendering="crispEdges"/><rect fill="#151719" x="1439.6" y="635.9" width="24.4" height="24.65" shape-rendering="crispEdges"/><rect fill="#151719" x="0" y="660.3" width="24.4" height="24.65" shape-rendering="crispEdges"/><rect fill="#151719" x="24.4" y="660.3" width="36.6" height="24.65" shape-rendering="crispEdges"/><rect fill="#151719" x="61" y="660.3" width="866.2" height="24.65" shape-rendering="crispEdges"/><rect fill="#151719" x="927.2" y="660.3" width="475.8" height="24.65" shape-rendering="crispEdges"/><rect fill="#151719" x="1403" y="660.3" width="36.6" height="24.65" shape-rendering="crispEdges"/><rect fill="#151719" x="1439.6" y="660.3" width="24.4" height="24.65" shape-rendering="crispEdges"/><rect fill="#151719" x="0" y="684.7" width="24.4" height="24.65" shape-rendering="crispEdges"/><rect fill="#151719" x="24.4" y="684.7" width="36.6" height="24.65" shape-rendering="crispEdges"/><rect fill="#151719" x="61" y="684.7" width="158.6" height="24.65" shape-rendering="crispEdges"/><rect fill="#151719" x="219.6" y="684.7" width="878.4" height="24.65" shape-rendering="crispEdges"/><rect fill="#151719" x="1098" y="684.7" width="12.2" height="24.65" shape-rendering="crispEdges"/><rect fill="#151719" x="1110.2" y="684.7" width="97.6" height="24.65" shape-rendering="crispEdges"/><rect fill="#151719" x="1207.8" y="684.7" width="12.2" height="24.65" shape-rendering="crispEdges"/><rect fill="#151719" x="1220" y="684.7" width="12.2" height="24.65" shape-rendering="crispEdges"/><rect fill="#151719" x="1232.2" y="684.7" width="12.2" height="24.65" shape-rendering="crispEdges"/><rect fill="#151719" x="1244.4" y="684.7" width="146.4" height="24.65" shape-rendering="crispEdges"/><rect fill="#151719" x="1390.8" y="684.7" width="12.2" height="24.65" shape-rendering="crispEdges"/><rect fill="#151719" x="1403" y="684.7" width="36.6" height="24.65" shape-rendering="crispEdges"/><rect fill="#151719" x="1439.6" y="684.7" width="24.4" height="24.65" shape-rendering="crispEdges"/><rect fill="#151719" x="0" y="709.1" width="61" height="24.65" shape-rendering="crispEdges"/><rect fill="#151719" x="61" y="709.1" width="109.8" height="24.65" shape-rendering="crispEdges"/><rect fill="#151719" x="170.8" y="709.1" width="48.8" height="24.65" shape-rendering="crispEdges"/><rect fill="#151719" x="219.6" y="709.1" width="61" height="24.65" shape-rendering="crispEdges"/><rect fill="#151719" x="280.6" y="709.1" width="48.8" height="24.65" shape-rendering="crispEdges"/><rect fill="#151719" x="329.4" y="709.1" width="109.8" height="24.65" shape-rendering="crispEdges"/><rect fill="#151719" x="439.2" y="709.1" width="48.8" height="24.65" shape-rendering="crispEdges"/><rect fill="#151719" x="488" y="709.1" width="61" height="24.65" shape-rendering="crispEdges"/><rect fill="#151719" x="549" y="709.1" width="36.6" height="24.65" shape-rendering="crispEdges"/><rect fill="#151719" x="585.6" y="709.1" width="109.8" height="24.65" shape-rendering="crispEdges"/><rect fill="#151719" x="695.4" y="709.1" width="36.6" height="24.65" shape-rendering="crispEdges"/><rect fill="#151719" x="732" y="709.1" width="158.6" height="24.65" shape-rendering="crispEdges"/><rect fill="#151719" x="890.6" y="709.1" width="573.4" height="24.65" shape-rendering="crispEdges"/>
    <g class="terminal-baseline-matrix">
    <text class="terminal-baseline-r1" x="1464" y="20" textLength="12.2" clip-path="url(#terminal-baseline-line-0)">
</text><text class="terminal-baseline-r2" x="36.6" y="44.4" textLength="24.4" clip-path="url(#terminal-baseline-line-1)">py</text><text class="terminal-baseline-r3" x="61" y="44.4" textLength="73.2" clip-path="url(#terminal-baseline-line-1)">tuitor</text><text class="terminal-baseline-r4" x="1329.8" y="44.4" textLength="97.6" clip-path="url(#terminal-baseline-line-1)">LEARNING</text><text class="terminal-baseline-r1" x="1464" y="44.4" textLength="12.2" clip-path="url(#terminal-baseline-line-1)">
</text><text class="terminal-baseline-r5" x="61" y="68.8" textLength="97.6" clip-path="url(#terminal-baseline-line-2)">Learning</text><text class="terminal-baseline-r6" x="890.6" y="68.8" textLength="134.2" clip-path="url(#terminal-baseline-line-2)">&#160;Your&#160;game&#160;</text><text class="terminal-baseline-r4" x="1061.4" y="68.8" textLength="122" clip-path="url(#terminal-baseline-line-2)">&#160;Syllabus&#160;</text><text class="terminal-baseline-r4" x="1220" y="68.8" textLength="170.8" clip-path="url(#terminal-baseline-line-2)">&#160;Known&#160;topics&#160;</text><text class="terminal-baseline-r1" x="1464" y="68.8" textLength="12.2" clip-path="url(#terminal-baseline-line-2)">
</text><text class="terminal-baseline-r1" x="1464" y="93.2" textLength="12.2" clip-path="url(#terminal-baseline-line-3)">
</text><text class="terminal-baseline-r7" x="61" y="117.6" textLength="427" clip-path="url(#terminal-baseline-line-4)">Core&#160;3/52&#160;completed&#160;·&#160;Optional&#160;0/54</text><text class="terminal-baseline-r1" x="1464" y="117.6" textLength="12.2" clip-path="url(#terminal-baseline-line-4)">
</text><text class="terminal-baseline-r1" x="1464" y="142" textLength="12.2" clip-path="url(#terminal-baseline-line-5)">
</text><text class="terminal-baseline-r3" x="85.4" y="166.4" textLength="195.2" clip-path="url(#terminal-baseline-line-6)">UP&#160;NEXT&#160;·&#160;15&#160;min</text><text class="terminal-baseline-r1" x="1464" y="166.4" textLength="12.2" clip-path="url(#terminal-baseline-line-6)">
</text><text class="terminal-baseline-r3" x="85.4" y="190.8" textLength="244" clip-path="url(#terminal-baseline-line-7)">Decimal&#160;measurements</text><text class="terminal-baseline-r8" x="1220" y="190.8" textLength="146.4" clip-path="url(#terminal-baseline-line-7)">&#160;Continue&#160;→&#160;</text><text class="terminal-baseline-r1" x="1464" y="190.8" textLength="12.2" clip-path="url(#terminal-baseline-line-7)">
</text><text class="terminal-baseline-r3" x="85.4" y="215.2" textLength="646.6" clip-path="url(#terminal-baseline-line-8)">Start&#160;with&#160;the&#160;explanation&#160;and&#160;exercise&#160;requirements.</text><text class="terminal-baseline-r1" x="1464" y="215.2" textLength="12.2" clip-path="url(#terminal-baseline-line-8)">
</text><text class="terminal-baseline-r9" x="61" y="239.6" textLength="12.2" clip-path="url(#terminal-baseline-line-9)">▊</text><text class="terminal-baseline-r10" x="73.2" y="239.6" textLength="1317.6" clip-path="url(#terminal-baseline-line-9)">▔▔▔▔▔▔▔▔▔▔▔▔▔▔▔▔▔▔▔▔▔▔▔▔▔▔▔▔▔▔▔▔▔▔▔▔▔▔▔▔▔▔▔▔▔▔▔▔▔▔▔▔▔▔▔▔▔▔▔▔▔▔▔▔▔▔▔▔▔▔▔▔▔▔▔▔▔▔▔▔▔▔▔▔▔▔▔▔▔▔▔▔▔▔▔▔▔▔▔▔▔▔▔▔▔▔▔▔</text><text class="terminal-baseline-r10" x="1390.8" y="239.6" textLength="12.2" clip-path="url(#terminal-baseline-line-9)">▎</text><text class="terminal-baseline-r1" x="1464" y="239.6" textLength="12.2" clip-path="url(#terminal-baseline-line-9)">
</text><text class="terminal-baseline-r9" x="61" y="264" textLength="12.2" clip-path="url(#terminal-baseline-line-10)">▊</text><text class="terminal-baseline-r11" x="97.6" y="264" textLength="622.2" clip-path="url(#terminal-baseline-line-10)">Foundations&#160;&#160;&#160;&#160;&#160;&#160;&#160;&#160;&#160;&#160;&#160;&#160;·&#160;Chapter&#160;&#160;1:&#160;First&#160;programs</text><text class="terminal-baseline-r12" x="1354.2" y="264" textLength="12.2" clip-path="url(#terminal-baseline-line-10)">▼</text><text class="terminal-baseline-r10" x="1390.8" y="264" textLength="12.2" clip-path="url(#terminal-baseline-line-10)">▎</text><text class="terminal-baseline-r1" x="1464" y="264" textLength="12.2" clip-path="url(#terminal-baseline-line-10)">
</text><text class="terminal-baseline-r9" x="61" y="288.4" textLength="12.2" clip-path="url(#terminal-baseline-line-11)">▊</text><text class="terminal-baseline-r10" x="73.2" y="288.4" textLength="1317.6" clip-path="url(#terminal-baseline-line-11)">▁▁▁▁▁▁▁▁▁▁▁▁▁▁▁▁▁▁▁▁▁▁▁▁▁▁▁▁▁▁▁▁▁▁▁▁▁▁▁▁▁▁▁▁▁▁▁▁▁▁▁▁▁▁▁▁▁▁▁▁▁▁▁▁▁▁▁▁▁▁▁▁▁▁▁▁▁▁▁▁▁▁▁▁▁▁▁▁▁▁▁▁▁▁▁▁▁▁▁▁▁▁▁▁▁▁▁▁</text><text class="terminal-baseline-r10" x="1390.8" y="288.4" textLength="12.2" clip-path="url(#terminal-baseline-line-11)">▎</text><text class="terminal-baseline-r1" x="1464" y="288.4" textLength="12.2" clip-path="url(#terminal-baseline-line-11)">
</text><text class="terminal-baseline-r7" x="61" y="312.8" textLength="573.4" clip-path="url(#terminal-baseline-line-12)">Read&#160;input,&#160;calculate,&#160;and&#160;choose&#160;what&#160;happens.</text><text class="terminal-baseline-r1" x="1464" y="312.8" textLength="12.2" clip-path="url(#terminal-baseline-line-12)">
</text><text class="terminal-baseline-r5" x="61" y="337.2" textLength="280.6" clip-path="url(#terminal-baseline-line-13)">Lessons&#160;in&#160;this&#160;chapter</text><text class="terminal-baseline-r1" x="1464" y="337.2" textLength="12.2" clip-path="url(#terminal-baseline-line-13)">
</text><text class="terminal-baseline-r13" x="73.2" y="361.6" textLength="305" clip-path="url(#terminal-baseline-line-14)">✓&#160;&#160;01&#160;&#160;Your&#160;first&#160;program</text><text class="terminal-baseline-r14" x="378.2" y="361.6" textLength="244" clip-path="url(#terminal-baseline-line-14)">&#160;·&#160;8&#160;min&#160;·&#160;completed</text><text class="terminal-baseline-r1" x="1464" y="361.6" textLength="12.2" clip-path="url(#terminal-baseline-line-14)">
</text><text class="terminal-baseline-r13" x="73.2" y="386" textLength="317.2" clip-path="url(#terminal-baseline-line-15)">✓&#160;&#160;02&#160;&#160;Variables&#160;and&#160;input</text><text class="terminal-baseline-r14" x="390.4" y="386" textLength="256.2" clip-path="url(#terminal-baseline-line-15)">&#160;·&#160;10&#160;min&#160;·&#160;completed</text><text class="terminal-baseline-r1" x="1464" y="386" textLength="12.2" clip-path="url(#terminal-baseline-line-15)">
</text><text class="terminal-baseline-r13" x="73.2" y="410.4" textLength="305" clip-path="url(#terminal-baseline-line-16)">✓&#160;&#160;03&#160;&#160;Numbers&#160;from&#160;input</text><text class="terminal-baseline-r14" x="378.2" y="410.4" textLength="256.2" clip-path="url(#terminal-baseline-line-16)">&#160;·&#160;15&#160;min&#160;·&#160;completed</text><text class="terminal-baseline-r1" x="1464" y="410.4" textLength="12.2" clip-path="url(#terminal-baseline-line-16)">
</text><text class="terminal-baseline-r6" x="73.2" y="434.8" textLength="329.4" clip-path="url(#terminal-baseline-line-17)">○&#160;&#160;04&#160;&#160;Decimal&#160;measurements</text><text class="terminal-baseline-r15" x="402.6" y="434.8" textLength="183" clip-path="url(#terminal-baseline-line-17)">&#160;·&#160;15&#160;min&#160;·&#160;new</text><text class="terminal-baseline-r1" x="1464" y="434.8" textLength="12.2" clip-path="url(#terminal-baseline-line-17)">
</text><text class="terminal-baseline-r13" x="73.2" y="459.2" textLength="280.6" clip-path="url(#terminal-baseline-line-18)">○&#160;&#160;05&#160;&#160;Making&#160;decisions</text><text class="terminal-baseline-r14" x="353.8" y="459.2" textLength="183" clip-path="url(#terminal-baseline-line-18)">&#160;·&#160;15&#160;min&#160;·&#160;new</text><text class="terminal-baseline-r1" x="1464" y="459.2" textLength="12.2" clip-path="url(#terminal-baseline-line-18)">
</text><text class="terminal-baseline-r13" x="73.2" y="483.6" textLength="378.2" clip-path="url(#terminal-baseline-line-19)">○&#160;&#160;06&#160;&#160;Arrival&#160;at&#160;Lantern&#160;Reach</text><text class="terminal-baseline-r14" x="451.4" y="483.6" textLength="390.4" clip-path="url(#terminal-baseline-line-19)">&#160;·&#160;game&#160;milestone&#160;·&#160;15&#160;min&#160;·&#160;new</text><text class="terminal-baseline-r1" x="1464" y="483.6" textLength="12.2" clip-path="url(#terminal-baseline-line-19)">
</text><text class="terminal-baseline-r1" x="1464" y="508" textLength="12.2" clip-path="url(#terminal-baseline-line-20)">
</text><text class="terminal-baseline-r1" x="1464" y="532.4" textLength="12.2" clip-path="url(#terminal-baseline-line-21)">
</text><text class="terminal-baseline-r1" x="1464" y="556.8" textLength="12.2" clip-path="url(#terminal-baseline-line-22)">
</text><text class="terminal-baseline-r1" x="1464" y="581.2" textLength="12.2" clip-path="url(#terminal-baseline-line-23)">
</text><text class="terminal-baseline-r1" x="1464" y="605.6" textLength="12.2" clip-path="url(#terminal-baseline-line-24)">
</text><text class="terminal-baseline-r1" x="1464" y="630" textLength="12.2" clip-path="url(#terminal-baseline-line-25)">
</text><text class="terminal-baseline-r1" x="1464" y="654.4" textLength="12.2" clip-path="url(#terminal-baseline-line-26)">
</text><text class="terminal-baseline-r7" x="61" y="678.8" textLength="866.2" clip-path="url(#terminal-baseline-line-27)">↑&#160;↓&#160;select&#160;·&#160;Enter&#160;or&#160;double-click&#160;opens&#160;·&#160;Known&#160;lessons&#160;stay&#160;available</text><text class="terminal-baseline-r1" x="1464" y="678.8" textLength="12.2" clip-path="url(#terminal-baseline-line-27)">
</text><text class="terminal-baseline-r7" x="61" y="703.2" textLength="158.6" clip-path="url(#terminal-baseline-line-28)">Saved&#160;locally</text><text class="terminal-baseline-r2" x="1110.2" y="703.2" textLength="97.6" clip-path="url(#terminal-baseline-line-28)">&#160;Review&#160;</text><text class="terminal-baseline-r16" x="1244.4" y="703.2" textLength="146.4" clip-path="url(#terminal-baseline-line-28)">&#160;Start&#160;over&#160;</text><text class="terminal-baseline-r1" x="1464" y="703.2" textLength="12.2" clip-path="url(#terminal-baseline-line-28)">
</text><text class="terminal-baseline-r6" x="0" y="727.6" textLength="61" clip-path="url(#terminal-baseline-line-29)">&#160;f10&#160;</text><text class="terminal-baseline-r11" x="61" y="727.6" textLength="109.8" clip-path="url(#terminal-baseline-line-29)">Keybinds&#160;</text><text class="terminal-baseline-r6" x="170.8" y="727.6" textLength="48.8" clip-path="url(#terminal-baseline-line-29)">&#160;^q&#160;</text><text class="terminal-baseline-r11" x="219.6" y="727.6" textLength="61" clip-path="url(#terminal-baseline-line-29)">Quit&#160;</text><text class="terminal-baseline-r6" x="280.6" y="727.6" textLength="48.8" clip-path="url(#terminal-baseline-line-29)">&#160;^p&#160;</text><text class="terminal-baseline-r11" x="329.4" y="727.6" textLength="109.8" clip-path="url(#terminal-baseline-line-29)">Commands&#160;</text><text class="terminal-baseline-r6" x="439.2" y="727.6" textLength="48.8" clip-path="url(#terminal-baseline-line-29)">&#160;^b&#160;</text><text class="terminal-baseline-r11" x="488" y="727.6" textLength="61" clip-path="url(#terminal-baseline-line-29)">Home&#160;</text><text class="terminal-baseline-r6" x="549" y="727.6" textLength="36.6" clip-path="url(#terminal-baseline-line-29)">&#160;c&#160;</text><text class="terminal-baseline-r11" x="585.6" y="727.6" textLength="109.8" clip-path="url(#terminal-baseline-line-29)">Continue&#160;</text><text class="terminal-baseline-r6" x="695.4" y="727.6" textLength="36.6" clip-path="url(#terminal-baseline-line-29)">&#160;p&#160;</text><text class="terminal-baseline-r11" x="732" y="727.6" textLength="158.6" clip-path="url(#terminal-baseline-line-29)">Known&#160;topics&#160;</text>
    </g>
    </g>
</svg>
