<svg class="rich-terminal" viewBox="0 0 994 635.5999999999999" xmlns="http://www.w3.org/2000/svg">
    <!-- Generated with Rich https://www.textualize.io -->
    <style>

    @font-face {
        font-family: "Fira Code";
        src: local("FiraCode-Regular"),
                url("https://cdnjs.cloudflare.com/ajax/libs/firacode/6.2.0/woff2/FiraCode-Regular.woff2") format("woff2"),
                url("https://cdnjs.cloudflare.com/ajax/libs/firacode/6.2.0/woff/FiraCode-Regular.woff") format("woff");
        font-style: normal;
        font-weight: 400;
    }
    @font-face {
        font-family: "Fira Code";
        src: local("FiraCode-Bold"),
                url("https://cdnjs.cloudflare.com/ajax/libs/firacode/6.2.0/woff2/FiraCode-Bold.woff2") format("woff2"),
                url("https://cdnjs.cloudflare.com/ajax/libs/firacode/6.2.0/woff/FiraCode-Bold.woff") format("woff");
        font-style: bold;
        font-weight: 700;
    }

    .terminal-baseline-matrix {
        font-family: Fira Code, monospace;
        font-size: 20px;
        line-height: 24.4px;
        font-variant-east-asian: full-width;
    }

    .terminal-baseline-title {
        font-size: 18px;
        font-weight: bold;
        font-family: arial;
    }

    .terminal-baseline-r1 { fill: #c5c8c6 }
.terminal-baseline-r2 { fill: #86bde8;font-weight: bold }
.terminal-baseline-r3 { fill: #ffd343 }
.terminal-baseline-r4 { fill: #a2aaa9;font-weight: bold }
.terminal-baseline-r5 { fill: #dddcd7;font-weight: bold }
.terminal-baseline-r6 { fill: #9ba3a5 }
.terminal-baseline-r7 { fill: #ffffff;font-weight: bold }
.terminal-baseline-r8 { fill: #3776ab }
.terminal-baseline-r9 { fill: #86bde8 }
.terminal-baseline-r10 { fill: #1c1f22 }
.terminal-baseline-r11 { fill: #c3cdc5 }
.terminal-baseline-r12 { fill: #000004 }
.terminal-baseline-r13 { fill: #dddcd7 }
.terminal-baseline-r14 { fill: #ffd343;font-weight: bold }
    </style>

    <defs>
    <clipPath id="terminal-baseline-clip-terminal">
      <rect x="0" y="0" width="975.0" height="584.5999999999999" />
    </clipPath>
    <clipPath id="terminal-baseline-line-0">
    <rect x="0" y="1.5" width="976" height="24.65"/>
            </clipPath>
<clipPath id="terminal-baseline-line-1">
    <rect x="0" y="25.9" width="976" height="24.65"/>
            </clipPath>
<clipPath id="terminal-baseline-line-2">
    <rect x="0" y="50.3" width="976" height="24.65"/>
            </clipPath>
<clipPath id="terminal-baseline-line-3">
    <rect x="0" y="74.7" width="976" height="24.65"/>
            </clipPath>
<clipPath id="terminal-baseline-line-4">
    <rect x="0" y="99.1" width="976" height="24.65"/>
            </clipPath>
<clipPath id="terminal-baseline-line-5">
    <rect x="0" y="123.5" width="976" height="24.65"/>
            </clipPath>
<clipPath id="terminal-baseline-line-6">
    <rect x="0" y="147.9" width="976" height="24.65"/>
            </clipPath>
<clipPath id="terminal-baseline-line-7">
    <rect x="0" y="172.3" width="976" height="24.65"/>
            </clipPath>
<clipPath id="terminal-baseline-line-8">
    <rect x="0" y="196.7" width="976" height="24.65"/>
            </clipPath>
<clipPath id="terminal-baseline-line-9">
    <rect x="0" y="221.1" width="976" height="24.65"/>
            </clipPath>
<clipPath id="terminal-baseline-line-10">
    <rect x="0" y="245.5" width="976" height="24.65"/>
            </clipPath>
<clipPath id="terminal-baseline-line-11">
    <rect x="0" y="269.9" width="976" height="24.65"/>
            </clipPath>
<clipPath id="terminal-baseline-line-12">
    <rect x="0" y="294.3" width="976" height="24.65"/>
            </clipPath>
<clipPath id="terminal-baseline-line-13">
    <rect x="0" y="318.7" width="976" height="24.65"/>
            </clipPath>
<clipPath id="terminal-baseline-line-14">
    <rect x="0" y="343.1" width="976" height="24.65"/>
            </clipPath>
<clipPath id="terminal-baseline-line-15">
    <rect x="0" y="367.5" width="976" height="24.65"/>
            </clipPath>
<clipPath id="terminal-baseline-line-16">
    <rect x="0" y="391.9" width="976" height="24.65"/>
            </clipPath>
<clipPath id="terminal-baseline-line-17">
    <rect x="0" y="416.3" width="976" height="24.65"/>
            </clipPath>
<clipPath id="terminal-baseline-line-18">
    <rect x="0" y="440.7" width="976" height="24.65"/>
            </clipPath>
<clipPath id="terminal-baseline-line-19">
    <rect x="0" y="465.1" width="976" height="24.65"/>
            </clipPath>
<clipPath id="terminal-baseline-line-20">
    <rect x="0" y="489.5" width="976" height="24.65"/>
            </clipPath>
<clipPath id="terminal-baseline-line-21">
    <rect x="0" y="513.9" width="976" height="24.65"/>
            </clipPath>
<clipPath id="terminal-baseline-line-22">
    <rect x="0" y="538.3" width="976" height="24.65"/>
            </clipPath>
    </defs>

    <rect fill="#292929" stroke="rgba(255,255,255,0.35)" stroke-width="1" x="1" y="1" width="992" height="633.6" rx="8"/><text class="terminal-baseline-title" fill="#c5c8c6" text-anchor="middle" x="496" y="27">Pytuitor</text>
            <g transform="translate(26,22)">
            <circle cx="0" cy="0" r="7" fill="#ff5f57"/>
            <circle cx="22" cy="0" r="7" fill="#febc2e"/>
            <circle cx="44" cy="0" r="7" fill="#28c840"/>
            </g>

    <g transform="translate(9, 41)" clip-path="url(#terminal-baseline-clip-terminal)">
    <rect fill="#151719" x="0" y="1.5" width="976" height="24.65" shape-rendering="crispEdges"/><rect fill="#151719" x="0" y="25.9" width="36.6" height="24.65" shape-rendering="crispEdges"/><rect fill="#151719" x="36.6" y="25.9" width="24.4" height="24.65" shape-rendering="crispEdges"/><rect fill="#151719" x="61" y="25.9" width="73.2" height="24.65" shape-rendering="crispEdges"/><rect fill="#151719" x="134.2" y="25.9" width="109.8" height="24.65" shape-rendering="crispEdges"/><rect fill="#151719" x="244" y="25.9" width="402.6" height="24.65" shape-rendering="crispEdges"/><rect fill="#151719" x="646.6" y="25.9" width="292.8" height="24.65" shape-rendering="crispEdges"/><rect fill="#151719" x="939.4" y="25.9" width="36.6" height="24.65" shape-rendering="crispEdges"/><rect fill="#151719" x="0" y="50.3" width="12.2" height="24.65" shape-rendering="crispEdges"/><rect fill="#24282b" x="12.2" y="50.3" width="24.4" height="24.65" shape-rendering="crispEdges"/><rect fill="#24282b" x="36.6" y="50.3" width="158.6" height="24.65" shape-rendering="crispEdges"/><rect fill="#24282b" x="195.2" y="50.3" width="24.4" height="24.65" shape-rendering="crispEdges"/><rect fill="#24282b" x="219.6" y="50.3" width="24.4" height="24.65" shape-rendering="crispEdges"/><rect fill="#24282b" x="244" y="50.3" width="134.2" height="24.65" shape-rendering="crispEdges"/><rect fill="#24282b" x="378.2" y="50.3" width="24.4" height="24.65" shape-rendering="crispEdges"/><rect fill="#151719" x="402.6" y="50.3" width="158.6" height="24.65" shape-rendering="crispEdges"/><rect fill="#151719" x="561.2" y="50.3" width="402.6" height="24.65" shape-rendering="crispEdges"/><rect fill="#151719" x="963.8" y="50.3" width="12.2" height="24.65" shape-rendering="crispEdges"/><rect fill="#151719" x="0" y="74.7" width="12.2" height="24.65" shape-rendering="crispEdges"/><rect fill="#3776ab" x="12.2" y="74.7" width="12.2" height="24.65" shape-rendering="crispEdges"/><rect fill="#3776ab" x="24.4" y="74.7" width="73.2" height="24.65" shape-rendering="crispEdges"/><rect fill="#3776ab" x="97.6" y="74.7" width="280.6" height="24.65" shape-rendering="crispEdges"/><rect fill="#3776ab" x="378.2" y="74.7" width="85.4" height="24.65" shape-rendering="crispEdges"/><rect fill="#3776ab" x="463.6" y="74.7" width="12.2" height="24.65" shape-rendering="crispEdges"/><rect fill="#151719" x="475.8" y="74.7" width="12.2" height="24.65" shape-rendering="crispEdges"/><rect fill="#24282b" x="488" y="74.7" width="12.2" height="24.65" shape-rendering="crispEdges"/><rect fill="#24282b" x="500.2" y="74.7" width="85.4" height="24.65" shape-rendering="crispEdges"/><rect fill="#24282b" x="585.6" y="74.7" width="256.2" height="24.65" shape-rendering="crispEdges"/><rect fill="#24282b" x="841.8" y="74.7" width="97.6" height="24.65" shape-rendering="crispEdges"/><rect fill="#24282b" x="939.4" y="74.7" width="12.2" height="24.65" shape-rendering="crispEdges"/><rect fill="#151719" x="951.6" y="74.7" width="12.2" height="24.65" shape-rendering="crispEdges"/><rect fill="#151719" x="963.8" y="74.7" width="12.2" height="24.65" shape-rendering="crispEdges"/><rect fill="#151719" x="0" y="99.1" width="12.2" height="24.65" shape-rendering="crispEdges"/><rect fill="#24282b" x="12.2" y="99.1" width="24.4" height="24.65" shape-rendering="crispEdges"/><rect fill="#24282b" x="36.6" y="99.1" width="61" height="24.65" shape-rendering="crispEdges"/><rect fill="#24282b" x="97.6" y="99.1" width="24.4" height="24.65" shape-rendering="crispEdges"/><rect fill="#151719" x="122" y="99.1" width="12.2" height="24.65" shape-rendering="crispEdges"/><rect fill="#3776ab" x="134.2" y="99.1" width="24.4" height="24.65" shape-rendering="crispEdges"/><rect fill="#3776ab" x="158.6" y="99.1" width="122" height="24.65" shape-rendering="crispEdges"/><rect fill="#3776ab" x="280.6" y="99.1" width="24.4" height="24.65" shape-rendering="crispEdges"/><rect fill="#151719" x="305" y="99.1" width="12.2" height="24.65" shape-rendering="crispEdges"/><rect fill="#24282b" x="317.2" y="99.1" width="24.4" height="24.65" shape-rendering="crispEdges"/><rect fill="#24282b" x="341.6" y="99.1" width="170.8" height="24.65" shape-rendering="crispEdges"/><rect fill="#24282b" x="512.4" y="99.1" width="24.4" height="24.65" shape-rendering="crispEdges"/><rect fill="#151719" x="536.8" y="99.1" width="12.2" height="24.65" shape-rendering="crispEdges"/><rect fill="#24282b" x="549" y="99.1" width="24.4" height="24.65" shape-rendering="crispEdges"/><rect fill="#24282b" x="573.4" y="99.1" width="122" height="24.65" shape-rendering="crispEdges"/><rect fill="#24282b" x="695.4" y="99.1" width="24.4" height="24.65" shape-rendering="crispEdges"/><rect fill="#151719" x="719.8" y="99.1" width="219.6" height="24.65" shape-rendering="crispEdges"/><rect fill="#151719" x="939.4" y="99.1" width="12.2" height="24.65" shape-rendering="crispEdges"/><rect fill="#151719" x="951.6" y="99.1" width="24.4" height="24.65" shape-rendering="crispEdges"/><rect fill="#151719" x="0" y="123.5" width="12.2" height="24.65" shape-rendering="crispEdges"/><rect fill="#24282b" x="12.2" y="123.5" width="24.4" height="24.65" shape-rendering="crispEdges"/><rect fill="#24282b" x="36.6" y="123.5" width="61" height="24.65" shape-rendering="crispEdges"/><rect fill="#24282b" x="97.6" y="123.5" width="24.4" height="24.65" shape-rendering="crispEdges"/><rect fill="#151719" x="122" y="123.5" width="12.2" height="24.65" shape-rendering="crispEdges"/><rect fill="#3776ab" x="134.2" y="123.5" width="24.4" height="24.65" shape-rendering="crispEdges"/><rect fill="#3776ab" x="158.6" y="123.5" width="122" height="24.65" shape-rendering="crispEdges"/><rect fill="#3776ab" x="280.6" y="123.5" width="24.4" height="24.65" shape-rendering="crispEdges"/><rect fill="#151719" x="305" y="123.5" width="12.2" height="24.65" shape-rendering="crispEdges"/><rect fill="#24282b" x="317.2" y="123.5" width="24.4" height="24.65" shape-rendering="crispEdges"/><rect fill="#24282b" x="341.6" y="123.5" width="170.8" height="24.65" shape-rendering="crispEdges"/><rect fill="#24282b" x="512.4" y="123.5" width="24.4" height="24.65" shape-rendering="crispEdges"/><rect fill="#151719" x="536.8" y="123.5" width="12.2" height="24.65" shape-rendering="crispEdges"/><rect fill="#24282b" x="549" y="123.5" width="24.4" height="24.65" shape-rendering="crispEdges"/><rect fill="#24282b" x="573.4" y="123.5" width="122" height="24.65" shape-rendering="crispEdges"/><rect fill="#24282b" x="695.4" y="123.5" width="24.4" height="24.65" shape-rendering="crispEdges"/><rect fill="#151719" x="719.8" y="123.5" width="219.6" height="24.65" shape-rendering="crispEdges"/><rect fill="#151719" x="939.4" y="123.5" width="12.2" height="24.65" shape-rendering="crispEdges"/><rect fill="#151719" x="951.6" y="123.5" width="24.4" height="24.65" shape-rendering="crispEdges"/><rect fill="#151719" x="0" y="147.9" width="12.2" height="24.65" shape-rendering="crispEdges"/><rect fill="#24282b" x="12.2" y="147.9" width="24.4" height="24.65" shape-rendering="crispEdges"/><rect fill="#24282b" x="36.6" y="147.9" width="61" height="24.65" shape-rendering="crispEdges"/><rect fill="#24282b" x="97.6" y="147.9" width="24.4" height="24.65" shape-rendering="crispEdges"/><rect fill="#151719" x="122" y="147.9" width="12.2" height="24.65" shape-rendering="crispEdges"/><rect fill="#3776ab" x="134.2" y="147.9" width="24.4" height="24.65" shape-rendering="crispEdges"/><rect fill="#3776ab" x="158.6" y="147.9" width="122" height="24.65" shape-rendering="crispEdges"/><rect fill="#3776ab" x="280.6" y="147.9" width="24.4" height="24.65" shape-rendering="crispEdges"/><rect fill="#151719" x="305" y="147.9" width="12.2" height="24.65" shape-rendering="crispEdges"/><rect fill="#24282b" x="317.2" y="147.9" width="24.4" height="24.65" shape-rendering="crispEdges"/><rect fill="#24282b" x="341.6" y="147.9" width="170.8" height="24.65" shape-rendering="crispEdges"/><rect fill="#24282b" x="512.4" y="147.9" width="24.4" height="24.65" shape-rendering="crispEdges"/><rect fill="#151719" x="536.8" y="147.9" width="12.2" height="24.65" shape-rendering="crispEdges"/><rect fill="#24282b" x="549" y="147.9" width="24.4" height="24.65" shape-rendering="crispEdges"/><rect fill="#24282b" x="573.4" y="147.9" width="122" height="24.65" shape-rendering="crispEdges"/><rect fill="#24282b" x="695.4" y="147.9" width="24.4" height="24.65" shape-rendering="crispEdges"/><rect fill="#151719" x="719.8" y="147.9" width="219.6" height="24.65" shape-rendering="crispEdges"/><rect fill="#151719" x="939.4" y="147.9" width="12.2" height="24.65" shape-rendering="crispEdges"/><rect fill="#151719" x="951.6" y="147.9" width="24.4" height="24.65" shape-rendering="crispEdges"/><rect fill="#151719" x="0" y="172.3" width="12.2" height="24.65" shape-rendering="crispEdges"/><rect fill="#1c1f22" x="12.2" y="172.3" width="12.2" height="24.65" shape-rendering="crispEdges"/><rect fill="#1c1f22" x="24.4" y="172.3" width="902.8" height="24.65" shape-rendering="crispEdges"/><rect fill="#1c1f22" x="927.2" y="172.3" width="12.2" height="24.65" shape-rendering="crispEdges"/><rect fill="#151719" x="939.4" y="172.3" width="12.2" height="24.65" shape-rendering="crispEdges"/><rect fill="#151719" x="951.6" y="172.3" width="24.4" height="24.65" shape-rendering="crispEdges"/><rect fill="#151719" x="0" y="196.7" width="12.2" height="24.65" shape-rendering="crispEdges"/><rect fill="#1c1f22" x="12.2" y="196.7" width="12.2" height="24.65" shape-rendering="crispEdges"/><rect fill="#1c1f22" x="24.4" y="196.7" width="12.2" height="24.65" shape-rendering="crispEdges"/><rect fill="#1c1f22" x="36.6" y="196.7" width="158.6" height="24.65" shape-rendering="crispEdges"/><rect fill="#1c1f22" x="195.2" y="196.7" width="719.8" height="24.65" shape-rendering="crispEdges"/><rect fill="#1c1f22" x="915" y="196.7" width="12.2" height="24.65" shape-rendering="crispEdges"/><rect fill="#1c1f22" x="927.2" y="196.7" width="12.2" height="24.65" shape-rendering="crispEdges"/><rect fill="#151719" x="939.4" y="196.7" width="12.2" height="24.65" shape-rendering="crispEdges"/><rect fill="#151719" x="951.6" y="196.7" width="24.4" height="24.65" shape-rendering="crispEdges"/><rect fill="#151719" x="0" y="221.1" width="12.2" height="24.65" shape-rendering="crispEdges"/><rect fill="#1c1f22" x="12.2" y="221.1" width="12.2" height="24.65" shape-rendering="crispEdges"/><rect fill="#1c1f22" x="24.4" y="221.1" width="12.2" height="24.65" shape-rendering="crispEdges"/><rect fill="#1c1f22" x="36.6" y="221.1" width="866.2" height="24.65" shape-rendering="crispEdges"/><rect fill="#1c1f22" x="902.8" y="221.1" width="12.2" height="24.65" shape-rendering="crispEdges"/><rect fill="#1c1f22" x="915" y="221.1" width="12.2" height="24.65" shape-rendering="crispEdges"/><rect fill="#1c1f22" x="927.2" y="221.1" width="12.2" height="24.65" shape-rendering="crispEdges"/><rect fill="#151719" x="939.4" y="221.1" width="12.2" height="24.65" shape-rendering="crispEdges"/><rect fill="#151719" x="951.6" y="221.1" width="24.4" height="24.65" shape-rendering="crispEdges"/><rect fill="#151719" x="0" y="245.5" width="12.2" height="24.65" shape-rendering="crispEdges"/><rect fill="#1c1f22" x="12.2" y="245.5" width="12.2" height="24.65" shape-rendering="crispEdges"/><rect fill="#1c1f22" x="24.4" y="245.5" width="12.2" height="24.65" shape-rendering="crispEdges"/><rect fill="#1c1f22" x="36.6" y="245.5" width="780.8" height="24.65" shape-rendering="crispEdges"/><rect fill="#1c1f22" x="817.4" y="245.5" width="97.6" height="24.65" shape-rendering="crispEdges"/><rect fill="#1c1f22" x="915" y="245.5" width="12.2" height="24.65" shape-rendering="crispEdges"/><rect fill="#1c1f22" x="927.2" y="245.5" width="12.2" height="24.65" shape-rendering="crispEdges"/><rect fill="#151719" x="939.4" y="245.5" width="12.2" height="24.65" shape-rendering="crispEdges"/><rect fill="#151719" x="951.6" y="245.5" width="24.4" height="24.65" shape-rendering="crispEdges"/><rect fill="#151719" x="0" y="269.9" width="12.2" height="24.65" shape-rendering="crispEdges"/><rect fill="#1c1f22" x="12.2" y="269.9" width="12.2" height="24.65" shape-rendering="crispEdges"/><rect fill="#1c1f22" x="24.4" y="269.9" width="12.2" height="24.65" shape-rendering="crispEdges"/><rect fill="#24282b" x="36.6" y="269.9" width="12.2" height="24.65" shape-rendering="crispEdges"/><rect fill="#24282b" x="48.8" y="269.9" width="97.6" height="24.65" shape-rendering="crispEdges"/><rect fill="#24282b" x="146.4" y="269.9" width="12.2" height="24.65" shape-rendering="crispEdges"/><rect fill="#1c1f22" x="158.6" y="269.9" width="12.2" height="24.65" shape-rendering="crispEdges"/><rect fill="#24282b" x="170.8" y="269.9" width="12.2" height="24.65" shape-rendering="crispEdges"/><rect fill="#24282b" x="183" y="269.9" width="109.8" height="24.65" shape-rendering="crispEdges"/><rect fill="#24282b" x="292.8" y="269.9" width="12.2" height="24.65" shape-rendering="crispEdges"/><rect fill="#1c1f22" x="305" y="269.9" width="12.2" height="24.65" shape-rendering="crispEdges"/><rect fill="#24282b" x="317.2" y="269.9" width="12.2" height="24.65" shape-rendering="crispEdges"/><rect fill="#24282b" x="329.4" y="269.9" width="73.2" height="24.65" shape-rendering="crispEdges"/><rect fill="#24282b" x="402.6" y="269.9" width="12.2" height="24.65" shape-rendering="crispEdges"/><rect fill="#1c1f22" x="414.8" y="269.9" width="500.2" height="24.65" shape-rendering="crispEdges"/><rect fill="#1c1f22" x="915" y="269.9" width="12.2" height="24.65" shape-rendering="crispEdges"/><rect fill="#1c1f22" x="927.2" y="269.9" width="12.2" height="24.65" shape-rendering="crispEdges"/><rect fill="#151719" x="939.4" y="269.9" width="12.2" height="24.65" shape-rendering="crispEdges"/><rect fill="#151719" x="951.6" y="269.9" width="24.4" height="24.65" shape-rendering="crispEdges"/><rect fill="#151719" x="0" y="294.3" width="12.2" height="24.65" shape-rendering="crispEdges"/><rect fill="#1c1f22" x="12.2" y="294.3" width="12.2" height="24.65" shape-rendering="crispEdges"/><rect fill="#1c1f22" x="24.4" y="294.3" width="890.6" height="24.65" shape-rendering="crispEdges"/><rect fill="#162f46" x="915" y="294.3" width="12.2" height="24.65" shape-rendering="crispEdges"/><rect fill="#1c1f22" x="927.2" y="294.3" width="12.2" height="24.65" shape-rendering="crispEdges"/><rect fill="#151719" x="939.4" y="294.3" width="12.2" height="24.65" shape-rendering="crispEdges"/><rect fill="#151719" x="951.6" y="294.3" width="24.4" height="24.65" shape-rendering="crispEdges"/><rect fill="#151719" x="0" y="318.7" width="12.2" height="24.65" shape-rendering="crispEdges"/><rect fill="#1c1f22" x="12.2" y="318.7" width="12.2" height="24.65" shape-rendering="crispEdges"/><rect fill="#1c1f22" x="24.4" y="318.7" width="12.2" height="24.65" shape-rendering="crispEdges"/><rect fill="#1c1f22" x="36.6" y="318.7" width="317.2" height="24.65" shape-rendering="crispEdges"/><rect fill="#1c1f22" x="353.8" y="318.7" width="549" height="24.65" shape-rendering="crispEdges"/><rect fill="#1c1f22" x="902.8" y="318.7" width="12.2" height="24.65" shape-rendering="crispEdges"/><rect fill="#162f46" x="915" y="318.7" width="12.2" height="24.65" shape-rendering="crispEdges"/><rect fill="#1c1f22" x="927.2" y="318.7" width="12.2" height="24.65" shape-rendering="crispEdges"/><rect fill="#151719" x="939.4" y="318.7" width="12.2" height="24.65" shape-rendering="crispEdges"/><rect fill="#151719" x="951.6" y="318.7" width="24.4" height="24.65" shape-rendering="crispEdges"/><rect fill="#151719" x="0" y="343.1" width="12.2" height="24.65" shape-rendering="crispEdges"/><rect fill="#1c1f22" x="12.2" y="343.1" width="12.2" height="24.65" shape-rendering="crispEdges"/><rect fill="#1c1f22" x="24.4" y="343.1" width="12.2" height="24.65" shape-rendering="crispEdges"/><rect fill="#1c1f22" x="36.6" y="343.1" width="0" height="24.65" shape-rendering="crispEdges"/><rect fill="#1c1f22" x="36.6" y="343.1" width="866.2" height="24.65" shape-rendering="crispEdges"/><rect fill="#1c1f22" x="902.8" y="343.1" width="12.2" height="24.65" shape-rendering="crispEdges"/><rect fill="#162f46" x="915" y="343.1" width="12.2" height="24.65" shape-rendering="crispEdges"/><rect fill="#1c1f22" x="927.2" y="343.1" width="12.2" height="24.65" shape-rendering="crispEdges"/><rect fill="#151719" x="939.4" y="343.1" width="12.2" height="24.65" shape-rendering="crispEdges"/><rect fill="#151719" x="951.6" y="343.1" width="24.4" height="24.65" shape-rendering="crispEdges"/><rect fill="#151719" x="0" y="367.5" width="12.2" height="24.65" shape-rendering="crispEdges"/><rect fill="#1c1f22" x="12.2" y="367.5" width="12.2" height="24.65" shape-rendering="crispEdges"/><rect fill="#1c1f22" x="24.4" y="367.5" width="12.2" height="24.65" shape-rendering="crispEdges"/><rect fill="#1c1f22" x="36.6" y="367.5" width="427" height="24.65" shape-rendering="crispEdges"/><rect fill="#1c1f22" x="463.6" y="367.5" width="439.2" height="24.65" shape-rendering="crispEdges"/><rect fill="#1c1f22" x="902.8" y="367.5" width="12.2" height="24.65" shape-rendering="crispEdges"/><rect fill="#162f46" x="915" y="367.5" width="12.2" height="24.65" shape-rendering="crispEdges"/><rect fill="#1c1f22" x="927.2" y="367.5" width="12.2" height="24.65" shape-rendering="crispEdges"/><rect fill="#151719" x="939.4" y="367.5" width="12.2" height="24.65" shape-rendering="crispEdges"/><rect fill="#151719" x="951.6" y="367.5" width="24.4" height="24.65" shape-rendering="crispEdges"/><rect fill="#151719" x="0" y="391.9" width="12.2" height="24.65" shape-rendering="crispEdges"/><rect fill="#1c1f22" x="12.2" y="391.9" width="12.2" height="24.65" shape-rendering="crispEdges"/><rect fill="#1c1f22" x="24.4" y="391.9" width="12.2" height="24.65" shape-rendering="crispEdges"/><rect fill="#1c1f22" x="36.6" y="391.9" width="841.8" height="24.65" shape-rendering="crispEdges"/><rect fill="#1c1f22" x="878.4" y="391.9" width="24.4" height="24.65" shape-rendering="crispEdges"/><rect fill="#1c1f22" x="902.8" y="391.9" width="12.2" height="24.65" shape-rendering="crispEdges"/><rect fill="#162f46" x="915" y="391.9" width="12.2" height="24.65" shape-rendering="crispEdges"/><rect fill="#1c1f22" x="927.2" y="391.9" width="12.2" height="24.65" shape-rendering="crispEdges"/><rect fill="#151719" x="939.4" y="391.9" width="12.2" height="24.65" shape-rendering="crispEdges"/><rect fill="#151719" x="951.6" y="391.9" width="24.4" height="24.65" shape-rendering="crispEdges"/><rect fill="#151719" x="0" y="416.3" width="12.2" height="24.65" shape-rendering="crispEdges"/><rect fill="#1c1f22" x="12.2" y="416.3" width="12.2" height="24.65" shape-rendering="crispEdges"/><rect fill="#1c1f22" x="24.4" y="416.3" width="12.2" height="24.65" shape-rendering="crispEdges"/><rect fill="#1c1f22" x="36.6" y="416.3" width="231.8" height="24.65" shape-rendering="crispEdges"/><rect fill="#1c1f22" x="268.4" y="416.3" width="634.4" height="24.65" shape-rendering="crispEdges"/><rect fill="#1c1f22" x="902.8" y="416.3" width="12.2" height="24.65" shape-rendering="crispEdges"/><rect fill="#162f46" x="915" y="416.3" width="12.2" height="24.65" shape-rendering="crispEdges"/><rect fill="#1c1f22" x="927.2" y="416.3" width="12.2" height="24.65" shape-rendering="crispEdges"/><rect fill="#151719" x="939.4" y="416.3" width="12.2" height="24.65" shape-rendering="crispEdges"/><rect fill="#151719" x="951.6" y="416.3" width="24.4" height="24.65" shape-rendering="crispEdges"/><rect fill="#151719" x="0" y="440.7" width="12.2" height="24.65" shape-rendering="crispEdges"/><rect fill="#1c1f22" x="12.2" y="440.7" width="12.2" height="24.65" shape-rendering="crispEdges"/><rect fill="#1c1f22" x="24.4" y="440.7" width="12.2" height="24.65" shape-rendering="crispEdges"/><rect fill="#1c1f22" x="36.6" y="440.7" width="256.2" height="24.65" shape-rendering="crispEdges"/><rect fill="#1c1f22" x="292.8" y="440.7" width="610" height="24.65" shape-rendering="crispEdges"/><rect fill="#1c1f22" x="902.8" y="440.7" width="12.2" height="24.65" shape-rendering="crispEdges"/><rect fill="#162f46" x="915" y="440.7" width="12.2" height="24.65" shape-rendering="crispEdges"/><rect fill="#1c1f22" x="927.2" y="440.7" width="12.2" height="24.65" shape-rendering="crispEdges"/><rect fill="#151719" x="939.4" y="440.7" width="12.2" height="24.65" shape-rendering="crispEdges"/><rect fill="#151719" x="951.6" y="440.7" width="24.4" height="24.65" shape-rendering="crispEdges"/><rect fill="#151719" x="0" y="465.1" width="12.2" height="24.65" shape-rendering="crispEdges"/><rect fill="#1c1f22" x="12.2" y="465.1" width="12.2" height="24.65" shape-rendering="crispEdges"/><rect fill="#1c1f22" x="24.4" y="465.1" width="12.2" height="24.65" shape-rendering="crispEdges"/><rect fill="#1c1f22" x="36.6" y="465.1" width="231.8" height="24.65" shape-rendering="crispEdges"/><rect fill="#1c1f22" x="268.4" y="465.1" width="634.4" height="24.65" shape-rendering="crispEdges"/><rect fill="#1c1f22" x="902.8" y="465.1" width="12.2" height="24.65" shape-rendering="crispEdges"/><rect fill="#162f46" x="915" y="465.1" width="12.2" height="24.65" shape-rendering="crispEdges"/><rect fill="#1c1f22" x="927.2" y="465.1" width="12.2" height="24.65" shape-rendering="crispEdges"/><rect fill="#151719" x="939.4" y="465.1" width="12.2" height="24.65" shape-rendering="crispEdges"/><rect fill="#151719" x="951.6" y="465.1" width="24.4" height="24.65" shape-rendering="crispEdges"/><rect fill="#151719" x="0" y="489.5" width="12.2" height="24.65" shape-rendering="crispEdges"/><rect fill="#1c1f22" x="12.2" y="489.5" width="12.2" height="24.65" shape-rendering="crispEdges"/><rect fill="#1c1f22" x="24.4" y="489.5" width="12.2" height="24.65" shape-rendering="crispEdges"/><rect fill="#1c1f22" x="36.6" y="489.5" width="0" height="24.65" shape-rendering="crispEdges"/><rect fill="#1c1f22" x="36.6" y="489.5" width="866.2" height="24.65" shape-rendering="crispEdges"/><rect fill="#1c1f22" x="902.8" y="489.5" width="12.2" height="24.65" shape-rendering="crispEdges"/><rect fill="#162f46" x="915" y="489.5" width="12.2" height="24.65" shape-rendering="crispEdges"/><rect fill="#1c1f22" x="927.2" y="489.5" width="12.2" height="24.65" shape-rendering="crispEdges"/><rect fill="#151719" x="939.4" y="489.5" width="12.2" height="24.65" shape-rendering="crispEdges"/><rect fill="#151719" x="951.6" y="489.5" width="24.4" height="24.65" shape-rendering="crispEdges"/><rect fill="#151719" x="0" y="513.9" width="12.2" height="24.65" shape-rendering="crispEdges"/><rect fill="#1c1f22" x="12.2" y="513.9" width="12.2" height="24.65" shape-rendering="crispEdges"/><rect fill="#1c1f22" x="24.4" y="513.9" width="12.2" height="24.65" shape-rendering="crispEdges"/><rect fill="#1c1f22" x="36.6" y="513.9" width="829.6" height="24.65" shape-rendering="crispEdges"/><rect fill="#1c1f22" x="866.2" y="513.9" width="36.6" height="24.65" shape-rendering="crispEdges"/><rect fill="#1c1f22" x="902.8" y="513.9" width="12.2" height="24.65" shape-rendering="crispEdges"/><rect fill="#000004" x="915" y="513.9" width="12.2" height="24.65" shape-rendering="crispEdges"/><rect fill="#1c1f22" x="927.2" y="513.9" width="12.2" height="24.65" shape-rendering="crispEdges"/><rect fill="#151719" x="939.4" y="513.9" width="12.2" height="24.65" shape-rendering="crispEdges"/><rect fill="#151719" x="951.6" y="513.9" width="24.4" height="24.65" shape-rendering="crispEdges"/><rect fill="#151719" x="0" y="538.3" width="12.2" height="24.65" shape-rendering="crispEdges"/><rect fill="#1c1f22" x="12.2" y="538.3" width="12.2" height="24.65" shape-rendering="crispEdges"/><rect fill="#1c1f22" x="24.4" y="538.3" width="902.8" height="24.65" shape-rendering="crispEdges"/><rect fill="#1c1f22" x="927.2" y="538.3" width="12.2" height="24.65" shape-rendering="crispEdges"/><rect fill="#151719" x="939.4" y="538.3" width="12.2" height="24.65" shape-rendering="crispEdges"/><rect fill="#151719" x="951.6" y="538.3" width="24.4" height="24.65" shape-rendering="crispEdges"/><rect fill="#151719" x="0" y="562.7" width="48.8" height="24.65" shape-rendering="crispEdges"/><rect fill="#151719" x="48.8" y="562.7" width="61" height="24.65" shape-rendering="crispEdges"/><rect fill="#151719" x="109.8" y="562.7" width="48.8" height="24.65" shape-rendering="crispEdges"/><rect fill="#151719" x="158.6" y="562.7" width="73.2" height="24.65" shape-rendering="crispEdges"/><rect fill="#151719" x="231.8" y="562.7" width="61" height="24.65" shape-rendering="crispEdges"/><rect fill="#151719" x="292.8" y="562.7" width="109.8" height="24.65" shape-rendering="crispEdges"/><rect fill="#151719" x="402.6" y="562.7" width="48.8" height="24.65" shape-rendering="crispEdges"/><rect fill="#151719" x="451.4" y="562.7" width="48.8" height="24.65" shape-rendering="crispEdges"/><rect fill="#151719" x="500.2" y="562.7" width="48.8" height="24.65" shape-rendering="crispEdges"/><rect fill="#151719" x="549" y="562.7" width="61" height="24.65" shape-rendering="crispEdges"/><rect fill="#151719" x="610" y="562.7" width="48.8" height="24.65" shape-rendering="crispEdges"/><rect fill="#151719" x="658.8" y="562.7" width="61" height="24.65" shape-rendering="crispEdges"/><rect fill="#151719" x="719.8" y="562.7" width="48.8" height="24.65" shape-rendering="crispEdges"/><rect fill="#151719" x="768.6" y="562.7" width="109.8" height="24.65" shape-rendering="crispEdges"/><rect fill="#151719" x="878.4" y="562.7" width="48.8" height="24.65" shape-rendering="crispEdges"/><rect fill="#151719" x="927.2" y="562.7" width="48.8" height="24.65" shape-rendering="crispEdges"/>
    <g class="terminal-baseline-matrix">
    <text class="terminal-baseline-r1" x="976" y="20" textLength="12.2" clip-path="url(#terminal-baseline-line-0)">
</text><text class="terminal-baseline-r2" x="36.6" y="44.4" textLength="24.4" clip-path="url(#terminal-baseline-line-1)">py</text><text class="terminal-baseline-r3" x="61" y="44.4" textLength="73.2" clip-path="url(#terminal-baseline-line-1)">tuitor</text><text class="terminal-baseline-r4" x="646.6" y="44.4" textLength="292.8" clip-path="url(#terminal-baseline-line-1)">ARRIVAL&#160;AT&#160;LANTERN&#160;REACH</text><text class="terminal-baseline-r1" x="976" y="44.4" textLength="12.2" clip-path="url(#terminal-baseline-line-1)">
</text><text class="terminal-baseline-r5" x="36.6" y="68.8" textLength="158.6" clip-path="url(#terminal-baseline-line-2)">&#160;←&#160;Dashboard&#160;</text><text class="terminal-baseline-r5" x="244" y="68.8" textLength="134.2" clip-path="url(#terminal-baseline-line-2)">&#160;Your&#160;game&#160;</text><text class="terminal-baseline-r6" x="402.6" y="68.8" textLength="158.6" clip-path="url(#terminal-baseline-line-2)">Saved&#160;locally</text><text class="terminal-baseline-r1" x="976" y="68.8" textLength="12.2" clip-path="url(#terminal-baseline-line-2)">
</text><text class="terminal-baseline-r7" x="97.6" y="93.2" textLength="280.6" clip-path="url(#terminal-baseline-line-3)">&#160;1&#160;&#160;Extend&#160;your&#160;game&#160;✓&#160;</text><text class="terminal-baseline-r5" x="585.6" y="93.2" textLength="256.2" clip-path="url(#terminal-baseline-line-3)">&#160;2&#160;&#160;Repair&#160;a&#160;program&#160;</text><text class="terminal-baseline-r1" x="976" y="93.2" textLength="12.2" clip-path="url(#terminal-baseline-line-3)">
</text><text class="terminal-baseline-r1" x="976" y="117.6" textLength="12.2" clip-path="url(#terminal-baseline-line-4)">
</text><text class="terminal-baseline-r5" x="36.6" y="142" textLength="61" clip-path="url(#terminal-baseline-line-5)">&#160;Run&#160;</text><text class="terminal-baseline-r7" x="158.6" y="142" textLength="122" clip-path="url(#terminal-baseline-line-5)">&#160;Check&#160;&#160;→&#160;</text><text class="terminal-baseline-r5" x="341.6" y="142" textLength="170.8" clip-path="url(#terminal-baseline-line-5)">&#160;Play&#160;version&#160;</text><text class="terminal-baseline-r5" x="573.4" y="142" textLength="122" clip-path="url(#terminal-baseline-line-5)">&#160;Repair&#160;→&#160;</text><text class="terminal-baseline-r1" x="976" y="142" textLength="12.2" clip-path="url(#terminal-baseline-line-5)">
</text><text class="terminal-baseline-r1" x="976" y="166.4" textLength="12.2" clip-path="url(#terminal-baseline-line-6)">
</text><text class="terminal-baseline-r8" x="12.2" y="190.8" textLength="12.2" clip-path="url(#terminal-baseline-line-7)">┌</text><text class="terminal-baseline-r8" x="24.4" y="190.8" textLength="902.8" clip-path="url(#terminal-baseline-line-7)">──────────────────────────────────────────────────────────────────────────</text><text class="terminal-baseline-r8" x="927.2" y="190.8" textLength="12.2" clip-path="url(#terminal-baseline-line-7)">┐</text><text class="terminal-baseline-r1" x="976" y="190.8" textLength="12.2" clip-path="url(#terminal-baseline-line-7)">
</text><text class="terminal-baseline-r8" x="12.2" y="215.2" textLength="12.2" clip-path="url(#terminal-baseline-line-8)">│</text><text class="terminal-baseline-r4" x="36.6" y="215.2" textLength="158.6" clip-path="url(#terminal-baseline-line-8)">CHECK&#160;RESULTS</text><text class="terminal-baseline-r8" x="927.2" y="215.2" textLength="12.2" clip-path="url(#terminal-baseline-line-8)">│</text><text class="terminal-baseline-r1" x="976" y="215.2" textLength="12.2" clip-path="url(#terminal-baseline-line-8)">
</text><text class="terminal-baseline-r8" x="12.2" y="239.6" textLength="12.2" clip-path="url(#terminal-baseline-line-9)">│</text><text class="terminal-baseline-r9" x="36.6" y="239.6" textLength="866.2" clip-path="url(#terminal-baseline-line-9)">Your&#160;game&#160;welcomes&#160;an&#160;explorer&#160;and&#160;chooses&#160;a&#160;route&#160;from&#160;their&#160;supplies.</text><text class="terminal-baseline-r8" x="927.2" y="239.6" textLength="12.2" clip-path="url(#terminal-baseline-line-9)">│</text><text class="terminal-baseline-r1" x="976" y="239.6" textLength="12.2" clip-path="url(#terminal-baseline-line-9)">
</text><text class="terminal-baseline-r8" x="12.2" y="264" textLength="12.2" clip-path="url(#terminal-baseline-line-10)">│</text><text class="terminal-baseline-r3" x="36.6" y="264" textLength="780.8" clip-path="url(#terminal-baseline-line-10)">Extend&#160;passed.&#160;Next:&#160;choose&#160;Repair&#160;to&#160;investigate&#160;a&#160;new&#160;program.</text><text class="terminal-baseline-r8" x="927.2" y="264" textLength="12.2" clip-path="url(#terminal-baseline-line-10)">│</text><text class="terminal-baseline-r1" x="976" y="264" textLength="12.2" clip-path="url(#terminal-baseline-line-10)">
</text><text class="terminal-baseline-r8" x="12.2" y="288.4" textLength="12.2" clip-path="url(#terminal-baseline-line-11)">│</text><text class="terminal-baseline-r5" x="48.8" y="288.4" textLength="97.6" clip-path="url(#terminal-baseline-line-11)">&#160;Checks&#160;</text><text class="terminal-baseline-r5" x="183" y="288.4" textLength="109.8" clip-path="url(#terminal-baseline-line-11)">&#160;Details&#160;</text><text class="terminal-baseline-r5" x="329.4" y="288.4" textLength="73.2" clip-path="url(#terminal-baseline-line-11)">&#160;Hint&#160;</text><text class="terminal-baseline-r8" x="927.2" y="288.4" textLength="12.2" clip-path="url(#terminal-baseline-line-11)">│</text><text class="terminal-baseline-r1" x="976" y="288.4" textLength="12.2" clip-path="url(#terminal-baseline-line-11)">
</text><text class="terminal-baseline-r8" x="12.2" y="312.8" textLength="12.2" clip-path="url(#terminal-baseline-line-12)">│</text><text class="terminal-baseline-r8" x="927.2" y="312.8" textLength="12.2" clip-path="url(#terminal-baseline-line-12)">│</text><text class="terminal-baseline-r1" x="976" y="312.8" textLength="12.2" clip-path="url(#terminal-baseline-line-12)">
</text><text class="terminal-baseline-r8" x="12.2" y="337.2" textLength="12.2" clip-path="url(#terminal-baseline-line-13)">│</text><text class="terminal-baseline-r11" x="36.6" y="337.2" textLength="317.2" clip-path="url(#terminal-baseline-line-13)">EXTEND&#160;·&#160;3/3&#160;checks&#160;passed</text><text class="terminal-baseline-r8" x="927.2" y="337.2" textLength="12.2" clip-path="url(#terminal-baseline-line-13)">│</text><text class="terminal-baseline-r1" x="976" y="337.2" textLength="12.2" clip-path="url(#terminal-baseline-line-13)">
</text><text class="terminal-baseline-r8" x="12.2" y="361.6" textLength="12.2" clip-path="url(#terminal-baseline-line-14)">│</text><text class="terminal-baseline-r8" x="927.2" y="361.6" textLength="12.2" clip-path="url(#terminal-baseline-line-14)">│</text><text class="terminal-baseline-r1" x="976" y="361.6" textLength="12.2" clip-path="url(#terminal-baseline-line-14)">
</text><text class="terminal-baseline-r8" x="12.2" y="386" textLength="12.2" clip-path="url(#terminal-baseline-line-15)">│</text><text class="terminal-baseline-r11" x="36.6" y="386" textLength="427" clip-path="url(#terminal-baseline-line-15)">1.&#160;PASS&#160;·&#160;Enough&#160;food&#160;for&#160;the&#160;ridge</text><text class="terminal-baseline-r8" x="927.2" y="386" textLength="12.2" clip-path="url(#terminal-baseline-line-15)">│</text><text class="terminal-baseline-r1" x="976" y="386" textLength="12.2" clip-path="url(#terminal-baseline-line-15)">
</text><text class="terminal-baseline-r8" x="12.2" y="410.4" textLength="12.2" clip-path="url(#terminal-baseline-line-16)">│</text><text class="terminal-baseline-r11" x="36.6" y="410.4" textLength="841.8" clip-path="url(#terminal-baseline-line-16)">Test:&#160;The&#160;final&#160;four&#160;lines&#160;welcome&#160;Ada,&#160;report&#160;supplies&#160;and&#160;distance,</text><text class="terminal-baseline-r8" x="927.2" y="410.4" textLength="12.2" clip-path="url(#terminal-baseline-line-16)">│</text><text class="terminal-baseline-r1" x="976" y="410.4" textLength="12.2" clip-path="url(#terminal-baseline-line-16)">
</text><text class="terminal-baseline-r8" x="12.2" y="434.8" textLength="12.2" clip-path="url(#terminal-baseline-line-17)">│</text><text class="terminal-baseline-r11" x="36.6" y="434.8" textLength="231.8" clip-path="url(#terminal-baseline-line-17)">and&#160;take&#160;the&#160;ridge.</text><text class="terminal-baseline-r8" x="927.2" y="434.8" textLength="12.2" clip-path="url(#terminal-baseline-line-17)">│</text><text class="terminal-baseline-r1" x="976" y="434.8" textLength="12.2" clip-path="url(#terminal-baseline-line-17)">
</text><text class="terminal-baseline-r8" x="12.2" y="459.2" textLength="12.2" clip-path="url(#terminal-baseline-line-18)">│</text><text class="terminal-baseline-r11" x="36.6" y="459.2" textLength="256.2" clip-path="url(#terminal-baseline-line-18)">Expected&#160;result:&#160;True</text><text class="terminal-baseline-r8" x="927.2" y="459.2" textLength="12.2" clip-path="url(#terminal-baseline-line-18)">│</text><text class="terminal-baseline-r1" x="976" y="459.2" textLength="12.2" clip-path="url(#terminal-baseline-line-18)">
</text><text class="terminal-baseline-r8" x="12.2" y="483.6" textLength="12.2" clip-path="url(#terminal-baseline-line-19)">│</text><text class="terminal-baseline-r11" x="36.6" y="483.6" textLength="231.8" clip-path="url(#terminal-baseline-line-19)">Actual&#160;result:&#160;True</text><text class="terminal-baseline-r8" x="927.2" y="483.6" textLength="12.2" clip-path="url(#terminal-baseline-line-19)">│</text><text class="terminal-baseline-r1" x="976" y="483.6" textLength="12.2" clip-path="url(#terminal-baseline-line-19)">
</text><text class="terminal-baseline-r8" x="12.2" y="508" textLength="12.2" clip-path="url(#terminal-baseline-line-20)">│</text><text class="terminal-baseline-r12" x="915" y="508" textLength="12.2" clip-path="url(#terminal-baseline-line-20)">▅</text><text class="terminal-baseline-r8" x="927.2" y="508" textLength="12.2" clip-path="url(#terminal-baseline-line-20)">│</text><text class="terminal-baseline-r1" x="976" y="508" textLength="12.2" clip-path="url(#terminal-baseline-line-20)">
</text><text class="terminal-baseline-r8" x="12.2" y="532.4" textLength="12.2" clip-path="url(#terminal-baseline-line-21)">│</text><text class="terminal-baseline-r11" x="36.6" y="532.4" textLength="829.6" clip-path="url(#terminal-baseline-line-21)">3&#160;cases&#160;available&#160;in&#160;Checks.&#160;Details&#160;shows&#160;input&#160;and&#160;printed&#160;output.</text><text class="terminal-baseline-r8" x="927.2" y="532.4" textLength="12.2" clip-path="url(#terminal-baseline-line-21)">│</text><text class="terminal-baseline-r1" x="976" y="532.4" textLength="12.2" clip-path="url(#terminal-baseline-line-21)">
</text><text class="terminal-baseline-r8" x="12.2" y="556.8" textLength="12.2" clip-path="url(#terminal-baseline-line-22)">└</text><text class="terminal-baseline-r8" x="24.4" y="556.8" textLength="902.8" clip-path="url(#terminal-baseline-line-22)">──────────────────────────────────────────────────────────────────────────</text><text class="terminal-baseline-r8" x="927.2" y="556.8" textLength="12.2" clip-path="url(#terminal-baseline-line-22)">┘</text><text class="terminal-baseline-r1" x="976" y="556.8" textLength="12.2" clip-path="url(#terminal-baseline-line-22)">
</text><text class="terminal-baseline-r14" x="0" y="581.2" textLength="48.8" clip-path="url(#terminal-baseline-line-23)">&#160;f1&#160;</text><text class="terminal-baseline-r13" x="48.8" y="581.2" textLength="61" clip-path="url(#terminal-baseline-line-23)">Hint&#160;</text><text class="terminal-baseline-r14" x="109.8" y="581.2" textLength="48.8" clip-path="url(#terminal-baseline-line-23)">&#160;f5&#160;</text><text class="terminal-baseline-r13" x="158.6" y="581.2" textLength="73.2" clip-path="url(#terminal-baseline-line-23)">Check&#160;</text><text class="terminal-baseline-r14" x="231.8" y="581.2" textLength="61" clip-path="url(#terminal-baseline-line-23)">&#160;f10&#160;</text><text class="terminal-baseline-r13" x="292.8" y="581.2" textLength="109.8" clip-path="url(#terminal-baseline-line-23)">Keybinds&#160;</text><text class="terminal-baseline-r14" x="402.6" y="581.2" textLength="48.8" clip-path="url(#terminal-baseline-line-23)">&#160;^r&#160;</text><text class="terminal-baseline-r13" x="451.4" y="581.2" textLength="48.8" clip-path="url(#terminal-baseline-line-23)">Run&#160;</text><text class="terminal-baseline-r14" x="500.2" y="581.2" textLength="48.8" clip-path="url(#terminal-baseline-line-23)">&#160;^t&#160;</text><text class="terminal-baseline-r13" x="549" y="581.2" textLength="61" clip-path="url(#terminal-baseline-line-23)">Pane&#160;</text><text class="terminal-baseline-r14" x="610" y="581.2" textLength="48.8" clip-path="url(#terminal-baseline-line-23)">&#160;^q&#160;</text><text class="terminal-baseline-r13" x="658.8" y="581.2" textLength="61" clip-path="url(#terminal-baseline-line-23)">Quit&#160;</text><text class="terminal-baseline-r14" x="719.8" y="581.2" textLength="48.8" clip-path="url(#terminal-baseline-line-23)">&#160;^p&#160;</text><text class="terminal-baseline-r13" x="768.6" y="581.2" textLength="109.8" clip-path="url(#terminal-baseline-line-23)">Commands&#160;</text><text class="terminal-baseline-r14" x="878.4" y="581.2" textLength="48.8" clip-path="url(#terminal-baseline-line-23)">&#160;^b&#160;</text><text class="terminal-baseline-r13" x="927.2" y="581.2" textLength="48.8" clip-path="url(#terminal-baseline-line-23)">Home</text>
    </g>
    </g>
</svg>
